<svg viewBox="0 0 344.71 166.33" xmlns="http://www.w3.org/2000/svg" xmlns:xlink="http://www.w3.org/1999/xlink" id="Layer_1" overflow="hidden"><style>
.MsftOfcThm_Background1_Fill_v2 {
 fill:#FFFFFF; 
}
</style>
<defs></defs><path d="M229.98 153.23C229.98 151.38 229.98 150.48 229.98 149.59 229.94 137.04 230.08 124.49 229.74 111.95 229.63 107.99 228.68 103.92 227.36 100.15 224.8 92.84 219.15 89.35 211.12 89.38 210.46 89.38 209.8 89.32 208.99 89.29L208.99 85.65 279.42 85.65 279.42 89.4C276.96 89.4 274.51 89.4 272.07 89.4 261.97 89.42 256.29 93.21 253.71 102.59 251.01 112.43 250.87 122.59 252.81 132.53 254.98 143.6 263.93 150.62 276.06 152.57 293.04 155.3 304.95 146.18 311.33 131.38 314.61 123.76 315.5 115.6 316.48 107.5 318.22 93.12 318.31 78.68 317.51 64.24 316.78 50.97 315.71 37.73 310.8 25.12 307.56 16.81 302.61 9.96 293.76 6.36 285.38 2.95 277.33 4.14 269.62 8.07 258.47 13.75 251.08 22.92 245.27 33.45 239.71 43.53 236.84 54.46 234.36 65.52 234.06 66.86 234.57 69.24 231.82 68.66L231.82 4.24C233.91 3.49 234.81 4.02 235.62 5.6 237.05 8.4 238.6 11.2 240.51 13.7 243.34 17.4 245.98 17.87 250.02 15.46 254.23 12.95 258.16 10.01 262.33 7.45 282.59-4.97 301.9-1.13 318.63 13.75 331.33 25.04 338.34 39.5 341.96 55.53 346.19 74.26 345.61 92.89 339.52 111.21 335.11 124.48 328.35 136.39 316.81 145.21 303.39 155.47 288.24 159.71 271.49 155.33 265.35 153.73 259.84 149.95 253.96 147.37 251.59 146.33 249.02 145.54 246.45 145.14 240.93 144.28 237.01 146.93 233.78 151.01 233.07 151.91 231.66 152.28 229.96 153.23Z" class="MsftOfcThm_Background1_Fill_v2" fill="#FFFFFF"/><path d="M64.94 89.4 64.94 85.68 135.52 85.68 135.52 89.04C132.85 89.41 130.2 89.55 127.66 90.16 123.37 91.19 120.3 93.84 118.25 97.61 115.27 103.11 114.64 109.11 114.55 115.13 114.4 126.52 114.49 137.91 114.49 149.3 114.49 150.28 114.49 151.26 114.49 153.19 112.85 152.26 111.41 151.91 110.76 151.02 105.19 143.47 97.47 143.99 91.02 147.11 85.99 149.54 81.13 152.34 75.96 154.46 66.85 158.19 57.39 157.57 48.07 155.27 33.91 151.78 23.15 143.5 15.22 131.92 3.85 115.27-0.36 96.61 0.02 76.88 0.32 61.52 3.5 46.77 10.93 33.05 17.53 20.84 26.55 10.86 39.47 4.55 53.39-2.25 66.99-1.22 80.2 6.32 84.31 8.66 88.14 11.45 92.11 14.02 93.24 14.75 94.39 15.49 95.6 16.08 98.42 17.45 100.82 17.33 102.76 14.95 105.11 12.07 107.02 8.82 108.89 5.61 109.74 4.16 110.53 3.41 112.73 4.25L112.73 68.61C111.31 69.23 110.78 68.35 110.44 66.78 108.12 56.3 105.61 45.88 100.69 36.16 94.83 24.6 87.16 14.61 75.25 8.18 60.95 0.46 44.71 4.89 36.79 18.77 32.23 26.76 30.19 35.51 28.88 44.44 26.54 60.43 26.38 76.52 26.89 92.61 27.25 104.08 28.32 115.54 31.58 126.6 34.66 137.07 40.32 146.01 51.1 150.76 63.79 156.36 81.94 151.39 88.57 140.4 90.37 137.42 91.81 133.87 92.13 130.47 93 121.2 93.44 111.84 90.91 102.69 88.4 93.6 82.61 89.42 72.85 89.4 70.3 89.4 67.75 89.4 64.92 89.4Z" class="MsftOfcThm_Background1_Fill_v2" fill="#FFFFFF"/><path d="M156.19 115.63C157.29 103.92 158.33 92.77 159.38 81.62 160.5 69.72 161.62 57.81 162.74 45.91 163.43 38.52 164.09 31.13 164.9 23.76 164.97 23.14 166.08 22.18 166.74 22.15 171 22 175.28 22.1 179.54 22.04 181.11 22.02 181.54 22.75 181.66 24.14 183.37 45.34 184.99 66.56 187.01 87.74 187.36 91.43 186.25 93.34 183.37 95.4 175.09 101.34 167.05 107.59 158.91 113.71 158.19 114.25 157.43 114.76 156.21 115.62Z" class="MsftOfcThm_Background1_Fill_v2" fill="#FFFFFF"/><path d="M189.22 109.81C189.97 116.47 190.68 122.67 191.37 128.86 192 134.43 192.52 140.01 193.29 145.56 193.63 148.04 193.2 149.86 191.1 151.58 185.7 156.01 180.48 160.63 175.28 165.28 173.79 166.62 172.72 166.7 171.19 165.35 165.58 160.4 159.85 155.59 154.26 150.63 153.57 150.02 153.04 148.83 153.08 147.94 153.24 144.74 153.6 141.53 154.05 138.35 154.16 137.56 154.75 136.66 155.4 136.15 161.45 131.47 167.61 126.92 173.65 122.23 178.08 118.78 182.38 115.16 186.74 111.63 187.39 111.1 188.08 110.63 189.21 109.8Z" class="MsftOfcThm_Background1_Fill_v2" fill="#FFFFFF"/><path d="M155.38 0.81 190.56 0.81C190.16 1.89 189.98 2.57 189.68 3.19 187.37 7.87 185.1 12.57 182.66 17.19 182.27 17.92 181.07 18.65 180.22 18.68 175.62 18.83 171.01 18.8 166.4 18.71 165.61 18.69 164.44 18.29 164.1 17.71 161.24 12.75 158.52 7.71 155.78 2.69 155.6 2.35 155.61 1.92 155.38 0.82Z" class="MsftOfcThm_Background1_Fill_v2" fill="#FFFFFF"/><path d="M187.75 96.27C187.82 96.64 187.85 96.88 187.92 97.12 189.65 103.67 187.8 108.58 181.49 112.12 177.54 114.33 174.06 117.35 170.48 120.14 165.99 123.66 161.62 127.33 157.19 130.92 156.63 131.38 156.01 131.77 154.79 132.64 155.29 128.16 155.71 124.3 156.2 120.44 156.24 120.12 156.71 119.8 157.03 119.55 167.03 111.84 177.03 104.15 187.04 96.46 187.16 96.37 187.35 96.37 187.75 96.26Z" class="MsftOfcThm_Background1_Fill_v2" fill="#FFFFFF"/><path d="M209.38 141.6C214.01 141.6 217.06 144.14 217.06 148 217.06 152.7 213.92 155.85 209.18 155.89 204.9 155.93 201.6 152.6 201.59 148.23 201.58 143.66 203.98 141.61 209.38 141.61Z" class="MsftOfcThm_Background1_Fill_v2" fill="#FFFFFF"/><path d="M141.41 148.02C141.25 152.88 137.94 156.05 133.2 155.9 129.04 155.77 125.63 152.1 125.82 147.96 126.03 143.42 128.82 141.37 134.49 141.58 138.49 141.73 141.52 144.55 141.41 148.02Z" class="MsftOfcThm_Background1_Fill_v2" fill="#FFFFFF"/></svg>