<svg viewBox="0 0 352.35 268.59" xmlns="http://www.w3.org/2000/svg" xmlns:xlink="http://www.w3.org/1999/xlink" id="Layer_1" overflow="hidden"><defs></defs><path d="M325.8 268.59 26.55 268.59C11.91 268.59 0 256.68 0 242.04L0 26.55C0 11.91 11.91 0 26.55 0L325.8 0C340.44 0 352.35 11.91 352.35 26.55L352.35 242.03C352.35 256.67 340.44 268.58 325.8 268.58ZM26.55 2C13.01 2 2 13.01 2 26.55L2 242.03C2 255.57 13.01 266.58 26.55 266.58L325.8 266.58C339.34 266.58 350.35 255.57 350.35 242.03L350.35 26.55C350.35 13.01 339.34 2 325.8 2L26.55 2Z" fill="#FFFFFF"/><rect x="11" y="11" rx="15.55" ry="15.55" width="330.35" height="246.58" fill="#FFFFFF" opacity="0.76"/><g><path d="M50.44 50.77 42.84 50.77 42.84 45.69C42.84 44.21 42.76 43.29 42.6 42.93 42.44 42.56 42.08 42.38 41.53 42.38 40.9 42.38 40.51 42.6 40.34 43.05 40.17 43.5 40.09 44.46 40.09 45.94L40.09 59.51C40.09 60.93 40.17 61.86 40.34 62.29 40.51 62.72 40.89 62.94 41.48 62.94 42.07 62.94 42.42 62.72 42.59 62.29 42.76 61.86 42.85 60.84 42.85 59.23L42.85 55.56 50.45 55.56 50.45 56.7C50.45 59.72 50.24 61.87 49.81 63.13 49.38 64.4 48.44 65.5 46.98 66.46 45.52 67.42 43.72 67.89 41.58 67.89 39.44 67.89 37.52 67.49 36.08 66.68 34.64 65.87 33.68 64.76 33.21 63.33 32.74 61.9 32.51 59.76 32.51 56.9L32.51 48.36C32.51 46.25 32.58 44.68 32.73 43.62 32.88 42.56 33.3 41.55 34.02 40.58 34.74 39.61 35.73 38.84 37 38.28 38.27 37.72 39.73 37.44 41.38 37.44 43.62 37.44 45.46 37.87 46.92 38.74 48.38 39.61 49.33 40.68 49.79 41.97 50.25 43.26 50.48 45.27 50.48 48L50.48 50.78Z" fill="#231F20"/><path d="M69.44 51.73 69.44 57.59C69.44 59.74 69.33 61.32 69.12 62.33 68.91 63.34 68.44 64.27 67.73 65.15 67.02 66.03 66.11 66.67 65 67.08 63.89 67.49 62.61 67.7 61.17 67.7 59.56 67.7 58.19 67.52 57.07 67.17 55.95 66.82 55.08 66.28 54.46 65.56 53.84 64.84 53.4 63.98 53.13 62.96 52.86 61.94 52.73 60.42 52.73 58.39L52.73 52.25C52.73 50.02 52.97 48.29 53.45 47.03 53.93 45.77 54.8 44.77 56.05 44.02 57.3 43.27 58.9 42.88 60.85 42.88 62.49 42.88 63.89 43.12 65.06 43.61 66.23 44.1 67.14 44.73 67.78 45.51 68.42 46.29 68.85 47.1 69.09 47.93 69.33 48.76 69.44 50.02 69.44 51.72ZM62.15 49.93C62.15 48.7 62.08 47.93 61.95 47.61 61.82 47.29 61.53 47.13 61.1 47.13 60.67 47.13 60.38 47.29 60.23 47.61 60.08 47.93 60.01 48.7 60.01 49.93L60.01 60.74C60.01 61.87 60.08 62.61 60.23 62.95 60.38 63.29 60.66 63.46 61.08 63.46 61.5 63.46 61.8 63.3 61.94 62.99 62.08 62.68 62.15 62 62.15 60.97L62.15 49.93Z" fill="#231F20"/><path d="M88.43 38.05 88.43 67.26 81.14 67.26 81.14 65.52C80.44 66.24 79.71 66.79 78.94 67.15 78.17 67.51 77.36 67.69 76.52 67.69 75.39 67.69 74.41 67.39 73.58 66.8 72.75 66.21 72.22 65.52 71.98 64.73 71.74 63.94 71.63 62.67 71.63 60.9L71.63 49.69C71.63 47.85 71.75 46.54 71.98 45.77 72.21 45 72.75 44.32 73.6 43.74 74.45 43.16 75.45 42.86 76.61 42.86 77.51 42.86 78.34 43.02 79.09 43.35 79.84 43.67 80.52 44.16 81.14 44.81L81.14 38.02 88.43 38.02ZM81.14 49.35C81.14 48.47 81.06 47.88 80.91 47.58 80.76 47.28 80.46 47.13 80.02 47.13 79.58 47.13 79.3 47.27 79.14 47.54 78.98 47.81 78.91 48.42 78.91 49.35L78.91 61.08C78.91 62.05 78.98 62.7 79.13 63 79.28 63.3 79.55 63.46 79.96 63.46 80.43 63.46 80.74 63.29 80.9 62.95 81.06 62.61 81.13 61.77 81.13 60.43L81.13 49.35Z" fill="#231F20"/><path d="M103.06 48.25 103.06 54.19 97.56 54.19 97.56 48.25 103.06 48.25ZM103.06 61.31 103.06 67.26 97.56 67.26 97.56 61.31 103.06 61.31Z" fill="#231F20"/><path d="M127.46 38.05 127.46 42.72 118.42 42.72 118.42 47.68C119.55 46.34 121.01 45.68 122.79 45.68 124.8 45.68 126.32 46.24 127.35 47.37 128.38 48.5 128.89 50.66 128.89 53.86L128.89 58.03C128.89 60.1 128.79 61.62 128.59 62.59 128.39 63.56 127.97 64.45 127.32 65.28 126.67 66.11 125.77 66.74 124.6 67.17 123.43 67.6 122.02 67.83 120.35 67.83 118.47 67.83 116.82 67.5 115.39 66.85 113.96 66.2 112.94 65.22 112.34 63.92 111.74 62.62 111.44 60.61 111.44 57.89L111.44 56.3 118.73 56.3 118.73 58.12C118.73 60.01 118.8 61.35 118.93 62.14 119.06 62.93 119.52 63.33 120.3 63.33 120.66 63.33 120.95 63.22 121.18 62.99 121.41 62.76 121.52 62.51 121.54 62.25 121.56 61.99 121.58 60.84 121.6 58.8L121.6 53.01C121.6 51.92 121.49 51.17 121.26 50.77 121.03 50.37 120.65 50.17 120.12 50.17 119.78 50.17 119.5 50.27 119.27 50.48 119.04 50.69 118.89 50.9 118.83 51.14 118.77 51.38 118.73 51.92 118.73 52.77L111.51 52.77 111.82 38.05 127.47 38.05Z" fill="#231F20"/><path d="M148.57 47.94 148.57 57.68C148.57 59.89 148.45 61.51 148.21 62.52 147.97 63.53 147.47 64.47 146.71 65.35 145.95 66.23 145.04 66.86 143.97 67.24 142.9 67.62 141.7 67.82 140.38 67.82 138.64 67.82 137.19 67.62 136.03 67.22 134.87 66.82 133.95 66.19 133.27 65.33 132.59 64.47 132.1 63.58 131.81 62.63 131.52 61.68 131.38 60.18 131.38 58.13L131.38 47.93C131.38 45.25 131.61 43.24 132.07 41.9 132.53 40.56 133.45 39.49 134.83 38.69 136.21 37.89 137.88 37.48 139.84 37.48 141.44 37.48 142.87 37.76 144.13 38.32 145.39 38.88 146.34 39.56 146.96 40.37 147.58 41.18 148.01 42.08 148.23 43.09 148.45 44.1 148.56 45.71 148.56 47.93ZM141.28 45.49C141.28 43.94 141.2 42.97 141.05 42.58 140.9 42.19 140.55 41.99 139.99 41.99 139.43 41.99 139.09 42.2 138.92 42.61 138.75 43.02 138.66 43.98 138.66 45.49L138.66 59.75C138.66 61.45 138.74 62.47 138.9 62.82 139.06 63.17 139.41 63.34 139.96 63.34 140.51 63.34 140.86 63.14 141.02 62.73 141.18 62.32 141.27 61.4 141.27 59.97L141.27 45.5Z" fill="#231F20"/><path d="M166.06 38.05 166.06 57.14 168.14 57.14 168.14 62.12 166.06 62.12 166.06 67.26 158.77 67.26 158.77 62.12 150.11 62.12 150.11 57.14 156.41 38.05 166.06 38.05ZM158.77 57.14 158.77 44.71 155.55 57.14 158.77 57.14Z" fill="#231F20"/><path d="M39.9 87.67 39.77 89.79C40.42 88.93 41.14 88.3 41.92 87.87 42.7 87.45 43.56 87.24 44.48 87.24 45.61 87.24 46.59 87.54 47.41 88.15 48.23 88.76 48.75 89.46 48.95 90.25 49.15 91.04 49.26 92.39 49.26 94.29L49.26 104.38C49.26 106.56 49.13 108.11 48.87 109.03 48.61 109.95 48.08 110.68 47.28 111.23 46.48 111.78 45.51 112.05 44.38 112.05 43.48 112.05 42.64 111.84 41.87 111.42 41.1 111 40.4 110.37 39.76 109.54L39.76 115.03 32.47 115.03 32.47 87.67 39.89 87.67ZM41.98 94.64C41.98 93.16 41.93 92.26 41.82 91.95 41.71 91.64 41.41 91.48 40.92 91.48 40.43 91.48 40.13 91.66 39.99 92.02 39.85 92.38 39.78 93.25 39.78 94.64L39.78 104.56C39.78 106 39.85 106.91 40 107.27 40.15 107.63 40.46 107.81 40.94 107.81 41.42 107.81 41.7 107.64 41.82 107.31 41.94 106.98 41.99 106.18 41.99 104.9L41.99 94.63Z" fill="#231F20"/><path d="M58.96 87.67 58.67 90.82C59.73 88.56 61.26 87.37 63.27 87.24L63.27 95.67C61.93 95.67 60.95 95.85 60.33 96.21 59.71 96.57 59.32 97.07 59.18 97.72 59.04 98.37 58.96 99.85 58.96 102.17L58.96 111.63 51.67 111.63 51.67 87.68 58.96 87.68Z" fill="#231F20"/><path d="M72.4 82.4 72.4 86.21 64.89 86.21 64.89 82.4 72.4 82.4ZM72.4 87.67 72.4 111.62 64.89 111.62 64.89 87.67 72.4 87.67Z" fill="#231F20"/><path d="M91.13 96.71 84.25 96.71 84.25 93.95C84.25 92.99 84.17 92.33 84.02 91.99 83.87 91.65 83.57 91.48 83.15 91.48 82.73 91.48 82.45 91.63 82.3 91.93 82.15 92.23 82.08 92.9 82.08 93.95L82.08 105.25C82.08 106.1 82.19 106.74 82.4 107.17 82.61 107.6 82.94 107.81 83.36 107.81 83.85 107.81 84.19 107.59 84.36 107.14 84.53 106.69 84.62 105.85 84.62 104.61L84.62 101.76 91.12 101.76C91.11 103.67 91.04 105.11 90.91 106.06 90.78 107.01 90.38 108 89.7 109 89.02 110 88.13 110.76 87.04 111.27 85.95 111.78 84.59 112.04 82.98 112.04 80.92 112.04 79.29 111.69 78.09 110.98 76.89 110.27 76.04 109.29 75.54 108.02 75.04 106.75 74.79 104.95 74.79 102.62L74.79 95.82C74.79 93.79 74.99 92.25 75.4 91.22 75.81 90.19 76.68 89.26 78.02 88.45 79.36 87.64 80.98 87.23 82.89 87.23 84.8 87.23 86.41 87.63 87.76 88.44 89.11 89.25 90 90.26 90.45 91.49 90.9 92.72 91.12 94.46 91.12 96.71Z" fill="#231F20"/><path d="M109.81 100.07 100.37 100.07 100.37 105.25C100.37 106.33 100.45 107.03 100.6 107.34 100.75 107.65 101.06 107.81 101.5 107.81 102.05 107.81 102.42 107.6 102.61 107.19 102.8 106.78 102.89 105.97 102.89 104.78L102.89 101.62 109.8 101.62 109.8 103.39C109.8 104.87 109.71 106.01 109.52 106.8 109.33 107.59 108.9 108.44 108.21 109.34 107.52 110.24 106.66 110.92 105.6 111.37 104.54 111.82 103.23 112.05 101.64 112.05 100.05 112.05 98.74 111.83 97.56 111.38 96.38 110.93 95.46 110.32 94.81 109.55 94.16 108.78 93.7 107.92 93.45 106.99 93.2 106.06 93.07 104.7 93.07 102.92L93.07 95.94C93.07 93.85 93.35 92.2 93.92 90.99 94.49 89.78 95.41 88.85 96.7 88.21 97.99 87.57 99.47 87.24 101.14 87.24 103.19 87.24 104.87 87.63 106.2 88.4 107.53 89.17 108.46 90.2 109 91.49 109.54 92.78 109.8 94.57 109.8 96.89L109.8 100.07ZM102.5 96.17 102.5 94.42C102.5 93.18 102.43 92.38 102.3 92.02 102.17 91.66 101.9 91.48 101.49 91.48 100.98 91.48 100.67 91.63 100.55 91.94 100.43 92.25 100.37 93.07 100.37 94.42L100.37 96.17 102.5 96.17Z" fill="#231F20"/><path d="M124.21 92.59 124.21 98.53 118.71 98.53 118.71 92.59 124.21 92.59ZM124.21 105.65 124.21 111.6 118.71 111.6 118.71 105.65 124.21 105.65Z" fill="#231F20"/><path d="M148.41 106.63 148.41 111.61 132.37 111.61 132.37 107.44C137.13 99.67 139.95 94.86 140.85 93.01 141.75 91.16 142.19 89.72 142.19 88.69 142.19 87.9 142.05 87.3 141.78 86.91 141.51 86.52 141.1 86.32 140.54 86.32 139.98 86.32 139.57 86.54 139.3 86.97 139.03 87.4 138.89 88.26 138.89 89.55L138.89 92.33 132.36 92.33 132.36 91.27C132.36 89.63 132.44 88.34 132.61 87.4 132.78 86.46 133.19 85.53 133.86 84.61 134.53 83.69 135.38 83 136.44 82.53 137.5 82.06 138.77 81.83 140.25 81.83 143.15 81.83 145.34 82.55 146.83 83.99 148.32 85.43 149.06 87.25 149.06 89.45 149.06 91.12 148.64 92.89 147.81 94.76 146.98 96.63 144.51 100.58 140.42 106.63L148.41 106.63Z" fill="#231F20"/><path d="M168.44 92.29 168.44 102.03C168.44 104.24 168.32 105.86 168.08 106.87 167.84 107.88 167.34 108.82 166.58 109.7 165.82 110.58 164.91 111.21 163.84 111.59 162.77 111.97 161.57 112.17 160.25 112.17 158.51 112.17 157.06 111.97 155.9 111.57 154.74 111.17 153.82 110.54 153.14 109.68 152.46 108.82 151.97 107.93 151.68 106.98 151.39 106.03 151.25 104.53 151.25 102.48L151.25 92.28C151.25 89.6 151.48 87.59 151.94 86.25 152.4 84.91 153.32 83.84 154.7 83.04 156.08 82.24 157.75 81.83 159.71 81.83 161.31 81.83 162.74 82.11 164 82.67 165.26 83.23 166.21 83.91 166.83 84.72 167.45 85.53 167.88 86.43 168.1 87.44 168.32 88.45 168.43 90.06 168.43 92.28ZM161.15 89.84C161.15 88.29 161.07 87.32 160.92 86.93 160.77 86.54 160.42 86.34 159.86 86.34 159.3 86.34 158.96 86.55 158.79 86.96 158.62 87.37 158.53 88.33 158.53 89.84L158.53 104.1C158.53 105.8 158.61 106.82 158.77 107.17 158.93 107.52 159.28 107.69 159.83 107.69 160.38 107.69 160.73 107.49 160.89 107.08 161.05 106.67 161.14 105.75 161.14 104.32L161.14 89.85Z" fill="#231F20"/><path d="M188.25 92.29 188.25 102.03C188.25 104.24 188.13 105.86 187.89 106.87 187.65 107.88 187.15 108.82 186.39 109.7 185.63 110.58 184.72 111.21 183.65 111.59 182.58 111.97 181.38 112.17 180.06 112.17 178.32 112.17 176.87 111.97 175.71 111.57 174.55 111.17 173.63 110.54 172.95 109.68 172.27 108.82 171.78 107.93 171.49 106.98 171.2 106.03 171.06 104.53 171.06 102.48L171.06 92.28C171.06 89.6 171.29 87.59 171.75 86.25 172.21 84.91 173.13 83.84 174.51 83.04 175.89 82.24 177.56 81.83 179.52 81.83 181.12 81.83 182.55 82.11 183.81 82.67 185.07 83.23 186.02 83.91 186.64 84.72 187.26 85.53 187.69 86.43 187.91 87.44 188.13 88.45 188.24 90.06 188.24 92.28ZM180.96 89.84C180.96 88.29 180.88 87.32 180.73 86.93 180.58 86.54 180.23 86.34 179.67 86.34 179.11 86.34 178.77 86.55 178.6 86.96 178.43 87.37 178.34 88.33 178.34 89.84L178.34 104.1C178.34 105.8 178.42 106.82 178.58 107.17 178.74 107.52 179.09 107.69 179.64 107.69 180.19 107.69 180.54 107.49 180.7 107.08 180.86 106.67 180.95 105.75 180.95 104.32L180.95 89.85Z" fill="#231F20"/><path d="M208.07 92.29 208.07 102.03C208.07 104.24 207.95 105.86 207.71 106.87 207.47 107.88 206.97 108.82 206.21 109.7 205.45 110.58 204.54 111.21 203.47 111.59 202.4 111.97 201.2 112.17 199.88 112.17 198.14 112.17 196.69 111.97 195.53 111.57 194.37 111.17 193.45 110.54 192.77 109.68 192.09 108.82 191.6 107.93 191.31 106.98 191.02 106.03 190.88 104.53 190.88 102.48L190.88 92.28C190.88 89.6 191.11 87.59 191.57 86.25 192.03 84.91 192.95 83.84 194.33 83.04 195.71 82.24 197.38 81.83 199.34 81.83 200.94 81.83 202.37 82.11 203.63 82.67 204.89 83.23 205.84 83.91 206.46 84.72 207.08 85.53 207.51 86.43 207.73 87.44 207.95 88.45 208.06 90.06 208.06 92.28ZM200.78 89.84C200.78 88.29 200.7 87.32 200.55 86.93 200.4 86.54 200.05 86.34 199.49 86.34 198.93 86.34 198.59 86.55 198.42 86.96 198.25 87.37 198.16 88.33 198.16 89.84L198.16 104.1C198.16 105.8 198.24 106.82 198.4 107.17 198.56 107.52 198.91 107.69 199.46 107.69 200.01 107.69 200.36 107.49 200.52 107.08 200.68 106.67 200.77 105.75 200.77 104.32L200.77 89.85Z" fill="#231F20"/><path d="M234.29 90.92 227 90.92 227 89.71C227 88.42 226.92 87.58 226.75 87.18 226.58 86.78 226.22 86.58 225.67 86.58 225.22 86.58 224.89 86.75 224.67 87.09 224.45 87.43 224.34 87.95 224.34 88.63 224.34 89.77 224.57 90.57 225.03 91.03 225.48 91.49 226.79 92.38 228.96 93.7 230.81 94.82 232.08 95.68 232.75 96.27 233.42 96.86 233.99 97.71 234.46 98.8 234.93 99.89 235.15 101.25 235.15 102.87 235.15 105.47 234.52 107.51 233.27 108.99 232.02 110.47 230.14 111.38 227.64 111.73L227.64 114.47 224.28 114.47 224.28 111.64C222.33 111.45 220.63 110.7 219.17 109.39 217.71 108.08 216.99 105.81 216.99 102.56L216.99 101.13 224.28 101.13 224.28 102.92C224.28 104.88 224.36 106.1 224.51 106.57 224.66 107.04 225.02 107.28 225.6 107.28 226.09 107.28 226.46 107.11 226.7 106.78 226.94 106.45 227.06 105.96 227.06 105.31 227.06 103.67 226.95 102.5 226.72 101.8 226.49 101.1 225.71 100.33 224.37 99.5 222.14 98.1 220.63 97.08 219.83 96.42 219.03 95.76 218.34 94.84 217.75 93.65 217.16 92.46 216.87 91.11 216.87 89.61 216.87 87.43 217.49 85.72 218.72 84.49 219.95 83.26 221.8 82.49 224.27 82.2L224.27 79.87 227.63 79.87 227.63 82.2C229.88 82.49 231.56 83.24 232.68 84.46 233.8 85.68 234.36 87.37 234.36 89.52 234.36 89.82 234.34 90.28 234.29 90.89Z" fill="#231F20"/></g><g><path d="M51.06 184.96 43.66 184.96 43.66 180.01C43.66 178.57 43.58 177.67 43.42 177.32 43.26 176.97 42.91 176.78 42.37 176.78 41.76 176.78 41.37 177 41.21 177.43 41.05 177.86 40.96 178.8 40.96 180.24L40.96 193.46C40.96 194.84 41.04 195.75 41.21 196.17 41.38 196.59 41.74 196.8 42.32 196.8 42.9 196.8 43.23 196.59 43.4 196.17 43.57 195.75 43.65 194.75 43.65 193.19L43.65 189.61 51.05 189.61 51.05 190.72C51.05 193.67 50.84 195.75 50.43 196.99 50.02 198.23 49.09 199.3 47.67 200.23 46.25 201.16 44.49 201.62 42.41 201.62 40.33 201.62 38.45 201.23 37.05 200.44 35.65 199.65 34.71 198.57 34.26 197.18 33.81 195.79 33.57 193.7 33.57 190.91L33.57 182.6C33.57 180.55 33.64 179.01 33.78 177.99 33.92 176.97 34.34 175.98 35.04 175.03 35.74 174.08 36.7 173.33 37.94 172.79 39.18 172.25 40.6 171.97 42.2 171.97 44.38 171.97 46.18 172.39 47.6 173.23 49.02 174.07 49.95 175.12 50.39 176.38 50.83 177.64 51.06 179.59 51.06 182.25L51.06 184.95Z" fill="#231F20"/><path d="M69.57 185.9 69.57 191.61C69.57 193.71 69.46 195.25 69.25 196.22 69.04 197.19 68.59 198.11 67.9 198.96 67.21 199.81 66.32 200.44 65.24 200.84 64.16 201.24 62.91 201.45 61.5 201.45 59.93 201.45 58.6 201.28 57.51 200.93 56.42 200.58 55.57 200.06 54.97 199.37 54.37 198.68 53.94 197.83 53.68 196.84 53.42 195.85 53.29 194.36 53.29 192.38L53.29 186.4C53.29 184.23 53.52 182.54 53.99 181.32 54.46 180.1 55.3 179.12 56.52 178.38 57.74 177.64 59.3 177.27 61.2 177.27 62.79 177.27 64.16 177.51 65.3 177.98 66.44 178.45 67.32 179.07 67.95 179.83 68.58 180.59 69 181.38 69.22 182.19 69.44 183 69.56 184.23 69.56 185.88ZM62.47 184.14C62.47 182.94 62.41 182.19 62.28 181.88 62.15 181.57 61.88 181.41 61.45 181.41 61.02 181.41 60.75 181.57 60.61 181.88 60.47 182.19 60.4 182.94 60.4 184.14L60.4 194.67C60.4 195.77 60.47 196.49 60.61 196.82 60.75 197.15 61.03 197.32 61.44 197.32 61.85 197.32 62.14 197.17 62.27 196.86 62.4 196.55 62.47 195.9 62.47 194.89L62.47 184.13Z" fill="#231F20"/><path d="M79.4 174.59 79.4 178.26 81.32 178.26 81.32 181.95 79.4 181.95 79.4 194.43C79.4 195.97 79.48 196.82 79.64 197 79.8 197.18 80.46 197.26 81.62 197.26L81.62 201.02 78.75 201.02C77.13 201.02 75.98 200.95 75.29 200.82 74.6 200.69 73.99 200.37 73.46 199.89 72.93 199.41 72.6 198.85 72.48 198.22 72.36 197.59 72.29 196.12 72.29 193.8L72.29 181.95 70.76 181.95 70.76 178.26 72.29 178.26 72.29 174.59 79.41 174.59Z" fill="#231F20"/><path d="M90.36 174.59 90.36 178.26 92.28 178.26 92.28 181.95 90.36 181.95 90.36 194.43C90.36 195.97 90.44 196.82 90.6 197 90.76 197.18 91.42 197.26 92.58 197.26L92.58 201.02 89.71 201.02C88.09 201.02 86.94 200.95 86.25 200.82 85.56 200.69 84.95 200.37 84.42 199.89 83.89 199.41 83.56 198.85 83.44 198.22 83.32 197.59 83.25 196.12 83.25 193.8L83.25 181.95 81.72 181.95 81.72 178.26 83.25 178.26 83.25 174.59 90.37 174.59Z" fill="#231F20"/><path d="M109.91 185.9 109.91 191.61C109.91 193.71 109.8 195.25 109.59 196.22 109.38 197.19 108.93 198.11 108.24 198.96 107.55 199.81 106.66 200.44 105.58 200.84 104.5 201.24 103.25 201.45 101.84 201.45 100.27 201.45 98.94 201.28 97.85 200.93 96.76 200.58 95.91 200.06 95.31 199.37 94.71 198.68 94.28 197.83 94.02 196.84 93.76 195.85 93.63 194.36 93.63 192.38L93.63 186.4C93.63 184.23 93.86 182.54 94.33 181.32 94.8 180.1 95.64 179.12 96.86 178.38 98.08 177.64 99.64 177.27 101.54 177.27 103.13 177.27 104.5 177.51 105.64 177.98 106.78 178.45 107.66 179.07 108.29 179.83 108.92 180.59 109.34 181.38 109.56 182.19 109.78 183 109.9 184.23 109.9 185.88ZM102.81 184.14C102.81 182.94 102.75 182.19 102.62 181.88 102.49 181.57 102.22 181.41 101.79 181.41 101.36 181.41 101.09 181.57 100.95 181.88 100.81 182.19 100.74 182.94 100.74 184.14L100.74 194.67C100.74 195.77 100.81 196.49 100.95 196.82 101.09 197.15 101.37 197.32 101.78 197.32 102.19 197.32 102.48 197.17 102.61 196.86 102.74 196.55 102.81 195.9 102.81 194.89L102.81 184.13Z" fill="#231F20"/><path d="M119.47 177.7 119.35 179.85C119.87 178.99 120.5 178.35 121.24 177.92 121.98 177.49 122.84 177.28 123.82 177.28 125.04 177.28 126.03 177.57 126.81 178.14 127.59 178.71 128.08 179.44 128.3 180.31 128.52 181.18 128.63 182.64 128.63 184.68L128.63 201.03 121.53 201.03 121.53 184.88C121.53 183.27 121.48 182.3 121.37 181.94 121.26 181.58 120.97 181.41 120.49 181.41 120.01 181.41 119.67 181.61 119.54 182.02 119.41 182.43 119.35 183.51 119.35 185.26L119.35 201.03 112.25 201.03 112.25 177.7 119.47 177.7Z" fill="#231F20"/><path d="M156.41 190.22 156.41 195.02 154.43 196.29 156.91 201.04 150.33 201.04 149.48 199.46C147.28 200.91 145.19 201.64 143.22 201.64 141.25 201.64 139.57 200.95 138.46 199.58 137.35 198.21 136.79 196.56 136.79 194.62 136.79 193.07 137.12 191.86 137.77 190.98 138.42 190.1 139.41 189.39 140.72 188.84 138.84 187.49 137.91 185.67 137.91 183.37 137.91 181.39 138.58 179.8 139.91 178.59 141.24 177.38 143.09 176.78 145.43 176.78 147.54 176.78 149.2 177.37 150.41 178.56 151.62 179.75 152.23 181.25 152.23 183.08 152.23 185 151.49 186.71 150.02 188.2L152.53 192.73 156.41 190.24ZM147.05 196.24 144.76 192.4C143.88 193.2 143.44 194.06 143.44 194.98 143.44 195.65 143.58 196.15 143.85 196.48 144.12 196.81 144.53 196.98 145.07 196.98 145.64 196.98 146.3 196.73 147.05 196.23ZM145.44 185.23C146.25 184.19 146.65 183.19 146.65 182.24 146.65 181.83 146.53 181.45 146.3 181.12 146.07 180.79 145.74 180.61 145.32 180.61 144.93 180.61 144.64 180.74 144.44 181 144.24 181.26 144.14 181.65 144.14 182.18 144.14 183.28 144.57 184.3 145.44 185.24Z" fill="#231F20"/><path d="M164.72 172.57 172.17 172.57C174.19 172.57 175.74 172.73 176.82 173.04 177.9 173.35 178.72 173.81 179.26 174.41 179.8 175.01 180.17 175.73 180.37 176.58 180.57 177.43 180.66 178.75 180.66 180.53L180.66 183.01C180.66 184.83 180.47 186.15 180.1 186.98 179.73 187.81 179.04 188.45 178.03 188.9 177.02 189.35 175.72 189.57 174.1 189.57L172.11 189.57 172.11 201.03 164.71 201.03 164.71 172.57ZM172.12 177.44 172.12 184.68C172.33 184.69 172.51 184.7 172.66 184.7 173.34 184.7 173.81 184.53 174.08 184.2 174.35 183.87 174.48 183.17 174.48 182.12L174.48 179.78C174.48 178.81 174.33 178.17 174.02 177.88 173.71 177.59 173.08 177.44 172.12 177.44Z" fill="#231F20"/><path d="M198.65 185.9 198.65 191.61C198.65 193.71 198.54 195.25 198.33 196.22 198.12 197.19 197.67 198.11 196.98 198.96 196.29 199.81 195.4 200.44 194.32 200.84 193.24 201.24 191.99 201.45 190.58 201.45 189.01 201.45 187.68 201.28 186.59 200.93 185.5 200.58 184.65 200.06 184.05 199.37 183.45 198.68 183.02 197.83 182.76 196.84 182.5 195.85 182.37 194.36 182.37 192.38L182.37 186.4C182.37 184.23 182.6 182.54 183.07 181.32 183.54 180.1 184.38 179.12 185.6 178.38 186.82 177.64 188.38 177.27 190.28 177.27 191.87 177.27 193.24 177.51 194.38 177.98 195.52 178.45 196.4 179.07 197.03 179.83 197.66 180.59 198.08 181.38 198.3 182.19 198.52 183 198.64 184.23 198.64 185.88ZM191.55 184.14C191.55 182.94 191.49 182.19 191.36 181.88 191.23 181.57 190.96 181.41 190.53 181.41 190.1 181.41 189.83 181.57 189.69 181.88 189.55 182.19 189.48 182.94 189.48 184.14L189.48 194.67C189.48 195.77 189.55 196.49 189.69 196.82 189.83 197.15 190.11 197.32 190.52 197.32 190.93 197.32 191.22 197.17 191.35 196.86 191.48 196.55 191.55 195.9 191.55 194.89L191.55 184.13Z" fill="#231F20"/><path d="M208.3 172.57 208.3 201.03 200.99 201.03 200.99 172.57 208.3 172.57Z" fill="#231F20"/><path d="M225.71 177.7 223.68 194.58C223.36 197.25 223.09 199.07 222.87 200.05 222.65 201.02 222.29 201.83 221.79 202.46 221.29 203.09 220.59 203.56 219.69 203.86 218.79 204.16 217.36 204.31 215.39 204.31L211.08 204.31 211.08 200.58C212.18 200.58 212.89 200.52 213.21 200.41 213.53 200.3 213.68 200.05 213.68 199.66 213.68 199.47 213.53 198.66 213.24 197.22L209.35 177.71 215.8 177.71 218.13 193.46 219.27 177.71 225.7 177.71Z" fill="#231F20"/><path d="M243.07 189.78 233.88 189.78 233.88 194.82C233.88 195.87 233.96 196.55 234.11 196.86 234.26 197.17 234.56 197.32 234.99 197.32 235.53 197.32 235.89 197.12 236.07 196.71 236.25 196.3 236.34 195.52 236.34 194.36L236.34 191.28 243.07 191.28 243.07 193C243.07 194.44 242.98 195.55 242.8 196.32 242.62 197.09 242.19 197.92 241.53 198.8 240.87 199.68 240.02 200.34 238.99 200.78 237.96 201.22 236.68 201.44 235.13 201.44 233.58 201.44 232.31 201.22 231.16 200.79 230.01 200.36 229.12 199.76 228.48 199.01 227.84 198.26 227.4 197.42 227.15 196.51 226.9 195.6 226.78 194.28 226.78 192.55L226.78 185.75C226.78 183.71 227.06 182.1 227.61 180.92 228.16 179.74 229.06 178.84 230.32 178.21 231.58 177.58 233.02 177.27 234.64 177.27 236.63 177.27 238.28 177.65 239.57 178.4 240.86 179.15 241.77 180.16 242.29 181.41 242.81 182.66 243.07 184.41 243.07 186.67L243.07 189.76ZM235.95 185.98 235.95 184.27C235.95 183.06 235.89 182.28 235.76 181.93 235.63 181.58 235.37 181.4 234.97 181.4 234.48 181.4 234.17 181.55 234.06 181.85 233.95 182.15 233.88 182.95 233.88 184.27L233.88 185.98 235.95 185.98Z" fill="#231F20"/><path d="M259.89 185.16 253.6 185.16 253.6 183.89C253.6 182.81 253.54 182.13 253.42 181.84 253.3 181.55 252.99 181.41 252.5 181.41 252.1 181.41 251.8 181.54 251.6 181.81 251.4 182.08 251.3 182.47 251.3 183 251.3 183.71 251.35 184.24 251.45 184.57 251.55 184.9 251.85 185.27 252.35 185.67 252.85 186.07 253.87 186.65 255.42 187.41 257.48 188.42 258.84 189.37 259.48 190.26 260.12 191.15 260.45 192.45 260.45 194.14 260.45 196.04 260.2 197.47 259.71 198.44 259.22 199.41 258.39 200.15 257.24 200.67 256.09 201.19 254.69 201.45 253.07 201.45 251.27 201.45 249.72 201.17 248.44 200.61 247.16 200.05 246.27 199.29 245.79 198.32 245.31 197.35 245.07 195.91 245.07 193.96L245.07 192.84 251.36 192.84 251.36 194.32C251.36 195.57 251.44 196.39 251.6 196.76 251.76 197.13 252.07 197.32 252.54 197.32 253.04 197.32 253.4 197.19 253.59 196.94 253.78 196.69 253.89 196.16 253.89 195.35 253.89 194.24 253.76 193.54 253.5 193.26 253.23 192.98 251.85 192.15 249.37 190.76 247.28 189.59 246.01 188.52 245.56 187.57 245.11 186.62 244.87 185.48 244.87 184.17 244.87 182.31 245.12 180.93 245.61 180.05 246.1 179.17 246.94 178.48 248.11 178 249.28 177.52 250.66 177.28 252.21 177.28 253.76 177.28 255.07 177.48 256.16 177.87 257.25 178.26 258.08 178.78 258.66 179.43 259.24 180.08 259.59 180.67 259.71 181.22 259.83 181.77 259.89 182.63 259.89 183.8L259.89 185.15Z" fill="#231F20"/><path d="M269.82 174.59 269.82 178.26 271.74 178.26 271.74 181.95 269.82 181.95 269.82 194.43C269.82 195.97 269.9 196.82 270.06 197 270.22 197.18 270.88 197.26 272.04 197.26L272.04 201.02 269.17 201.02C267.55 201.02 266.4 200.95 265.71 200.82 265.02 200.69 264.41 200.37 263.88 199.89 263.35 199.41 263.02 198.85 262.9 198.22 262.78 197.59 262.71 196.12 262.71 193.8L262.71 181.95 261.18 181.95 261.18 178.26 262.71 178.26 262.71 174.59 269.83 174.59Z" fill="#231F20"/><path d="M289.38 189.78 280.19 189.78 280.19 194.82C280.19 195.87 280.27 196.55 280.42 196.86 280.57 197.17 280.87 197.32 281.3 197.32 281.84 197.32 282.2 197.12 282.38 196.71 282.56 196.3 282.65 195.52 282.65 194.36L282.65 191.28 289.38 191.28 289.38 193C289.38 194.44 289.29 195.55 289.11 196.32 288.93 197.09 288.5 197.92 287.84 198.8 287.18 199.68 286.33 200.34 285.3 200.78 284.27 201.22 282.99 201.44 281.44 201.44 279.89 201.44 278.62 201.22 277.47 200.79 276.32 200.36 275.43 199.76 274.79 199.01 274.15 198.26 273.71 197.42 273.46 196.51 273.21 195.6 273.09 194.28 273.09 192.55L273.09 185.75C273.09 183.71 273.37 182.1 273.92 180.92 274.47 179.74 275.37 178.84 276.63 178.21 277.89 177.58 279.33 177.27 280.95 177.27 282.94 177.27 284.59 177.65 285.88 178.4 287.17 179.15 288.08 180.16 288.6 181.41 289.12 182.66 289.38 184.41 289.38 186.67L289.38 189.76ZM282.26 185.98 282.26 184.27C282.26 183.06 282.2 182.28 282.07 181.93 281.94 181.58 281.68 181.4 281.28 181.4 280.79 181.4 280.48 181.55 280.37 181.85 280.26 182.15 280.19 182.95 280.19 184.27L280.19 185.98 282.26 185.98Z" fill="#231F20"/><path d="M298.81 177.7 298.53 180.77C299.56 178.57 301.06 177.41 303.01 177.28L303.01 185.49C301.71 185.49 300.75 185.67 300.14 186.02 299.53 186.37 299.16 186.86 299.02 187.49 298.88 188.12 298.81 189.56 298.81 191.82L298.81 201.03 291.71 201.03 291.71 177.7 298.81 177.7Z" fill="#231F20"/></g><line x1="17.76" y1="139.09" x2="322.43" y2="139.09" stroke="#231F20" stroke-miterlimit="10" fill="none"/></svg>