<svg viewBox="0 0 438.34 99.24" xmlns="http://www.w3.org/2000/svg" xmlns:xlink="http://www.w3.org/1999/xlink" id="Layer_1" overflow="hidden"><defs></defs><path d="M395.18 26.57C395.18 25.7 395.19 24.98 395.18 24.25 395.11 20.25 397.13 17.31 401.18 16.44 404.15 15.8 407.26 15.75 410.31 15.53 413.03 15.33 415.79 15.46 418.48 15.09 423.69 14.38 428.63 8.92 425.07 3.15 424.47 2.18 424.09 1.07 423.61 2.22045e-15 429.29 3.15 429.37 11.27 423.4 14.71 420.76 16.24 417.34 16.75 414.19 17.16 410.24 17.67 406.17 17.33 402.22 17.86 398.73 18.33 396.74 21.03 396.8 24.09 396.83 25.82 397.37 26.76 399.49 26.73 407.6 26.63 415.73 26.47 423.82 26.82 427.31 26.97 430.81 28.16 434.2 29.19 436.6 29.92 438.26 31.65 438.34 34.29 438.42 36.93 436.88 38.81 434.49 39.58 431.21 40.64 427.78 41.78 424.38 41.89 412.45 42.27 400.5 42.43 388.56 42.27 375.42 42.1 362.28 41.3 349.14 41.09 298.07 40.28 247 39.55 195.93 38.87 164.93 38.46 133.92 38.17 102.92 37.86 87.72 37.71 72.51 37.91 57.31 37.5 38.2 36.98 19.1 35.99 0.01 34.77 9.46 34.4 18.91 33.83 28.36 33.68 76.61 32.89 124.86 32.22 173.11 31.47 213.59 30.84 254.07 30.25 294.55 29.48 318.46 29.03 342.36 28.3 366.26 27.66 375.22 27.42 384.18 27.07 393.14 26.77 393.8 26.75 394.46 26.65 395.19 26.57ZM412.88 36.96C412.76 37.21 410.98 36.85 410.86 37.1 409.69 36.68 408.46 35.62 406.43 34.75 403.33 32.84 400.12 31.79 396.33 32.05 390.38 32.46 384.4 32.4 378.44 32.7 374.82 32.88 371.22 33.36 367.61 33.71 368.11 34.41 368.58 34.6 369.06 34.63 379.76 35.46 390.45 36.5 401.17 36.99 407.97 37.3 414.81 36.87 421.62 36.58 423.37 36.51 425.1 36.5 426.84 35.3L426.74 34.42C426.28 32 413.14 32.18 406.07 32.49 407.48 33.42 411.49 36.01 412.89 36.95Z" fill="#FFFFFF"/><path d="M234.77 70.43C229.23 73.24 223.78 77.13 219.11 82.01 219.3 82.29 219.5 82.57 219.69 82.86 224.02 80.18 228.37 77.53 232.67 74.81 233.84 74.07 234.86 73.13 236.29 74.41 234.81 76.49 233.34 78.54 231.88 80.6 232.06 80.81 232.25 81.02 232.43 81.22 234.94 79.96 237.52 78.82 239.95 77.43 246.93 73.44 253.85 69.36 260.78 65.3 262.13 64.51 263.45 63.8 264.84 65.12 259.79 69.23 254.79 73.29 249.79 77.36 249.88 77.58 249.97 77.81 250.06 78.03 251.02 78.17 252.01 78.53 252.94 78.4 257.86 77.72 262.59 76.56 266.78 73.7 269.27 72 272.03 70.66 274.75 69.31 275.61 68.88 276.87 68.6 277.7 68.9 278.59 69.22 279.3 70.24 279.81 71.11 279.95 71.35 279.1 72.13 278.71 72.66 277.93 72.11 277.14 71.57 276.36 71.02L276.49 70.18C270.38 73.21 264.96 77.13 260.29 82.03 260.41 82.23 260.53 82.43 260.65 82.62 263.26 81.22 265.91 79.9 268.45 78.39 270.41 77.23 272.18 75.76 274.14 74.6 274.99 74.1 276.13 74.04 277.13 73.78 277.21 73.99 277.3 74.21 277.38 74.42 275.9 76.54 274.42 78.66 272.93 80.78 273.16 81.01 273.38 81.24 273.61 81.48 281.2 78.22 287.62 73.13 294.51 68.48 293.15 66.58 294.19 65.31 295.46 64.08 296.75 62.83 298.08 61.78 300.6 62.79 299.37 63.86 298.28 64.63 297.45 65.61 297.05 66.09 296.87 67.04 297.08 67.6 297.22 67.97 298.22 68.19 298.85 68.22 300.67 68.3 302.5 68.25 304.94 68.25 299.94 72.92 294.59 76.41 291.04 81.55 291.19 81.78 291.35 82.01 291.5 82.25 293.85 81.1 296.4 80.23 298.5 78.75 302.75 75.76 306.77 72.47 310.86 69.27 312.2 68.22 313.54 67.6 315.45 68.62 310.75 72.89 305.45 76.44 301.93 81.62 302.09 81.86 302.25 82.1 302.41 82.34 305.13 80.96 307.8 79.49 310.58 78.23 316.86 75.38 321.37 70.48 326.32 66.03 329.29 63.36 332.5 60.75 336.05 58.93 343.94 54.87 353 57.62 356.98 65.34 361.11 73.38 367.94 76.97 376.69 77.95 387.06 79.12 400.12 70.6 402.12 61.39 400.27 61.54 398.43 61.85 396.6 61.8 392.28 61.66 388.82 58.67 388.67 55.15 388.53 51.64 391.9 48.39 396.1 47.98 400.65 47.54 403.76 49.77 404.54 54.04 404.73 55.09 404.87 56.15 405.09 57.56 409.15 54.69 411.64 51.18 412.42 46.58 412.52 46.01 412.85 42.89 412.81 42.33 412.61 39.65 413.92 42.12 414.22 41.8 414.48 42.16 414.26 44.64 414.22 44.97 414.02 46.59 413.9 48.27 413.33 49.79 412.01 53.35 409.74 56.27 406.52 58.55 405.45 59.3 404.55 60.55 404.06 61.76 396.94 79.13 375.53 85.9 360.55 72.97 358.82 71.48 357.5 69.41 356.39 67.41 351.11 57.89 340.52 55.72 331.91 62.78 326.91 66.88 322.45 71.61 317.5 75.77 313.24 79.35 308.4 82.18 302.73 83.27 300.95 83.61 298.99 83.66 299.11 80.84 297.04 81.62 295.07 82.65 292.97 83.06 291.54 83.34 289.93 82.75 288.4 82.56 288.95 81.27 289.2 79.71 290.12 78.75 292.79 75.98 295.72 73.45 298.56 70.83 298.98 70.44 299.42 70.07 299.84 69.7 299.74 69.45 299.64 69.2 299.54 68.95 298.24 69.35 296.77 69.5 295.68 70.2 290.69 73.37 285.87 76.79 280.84 79.91 278.94 81.09 276.73 81.97 274.53 82.48 272.55 82.94 270.37 82.77 269.97 79.97 267.71 81.06 265.52 82.17 263.28 83.16 262.29 83.6 261.18 84.01 260.11 84.04 259.09 84.07 258.05 83.59 257.02 83.33 257.4 82.46 257.67 81.53 258.2 80.75 258.75 79.94 259.54 79.29 260.44 78.34 257.9 78.73 255.68 79.07 253.34 79.43 252.73 83.49 249.38 85.66 246.35 87.79 240.78 91.7 234.93 95.25 229.11 98.8 228.13 99.4 226.67 99.28 225.22 99.07 232.52 90.08 241.06 82.46 249.25 74.38 246.59 75.85 243.97 77.4 241.24 78.76 238.6 80.08 235.93 81.39 233.13 82.34 231.14 83.02 229.23 82.56 228.91 79.86 226.89 80.88 225.06 81.95 223.1 82.73 221.47 83.38 219.71 83.82 217.97 84.06 217.18 84.17 216.28 83.58 215.43 83.31 215.82 82.44 215.96 81.3 216.63 80.75 219.87 78.08 223.16 75.46 226.6 73.05 228.65 71.61 230.98 70.51 233.25 69.38 234.05 68.98 235.16 68.62 235.94 68.85 236.98 69.16 237.94 69.96 238.69 70.76 238.86 70.94 238.03 72 237.67 72.65 236.85 72.02 236.02 71.38 234.78 70.42ZM402.98 56.65C402.9 52.12 400.69 49.49 397 49.52 393.38 49.55 390.48 51.96 390.56 54.87 390.64 57.85 393.83 60.28 397.66 60.28 401.34 60.28 403.03 59.12 402.98 56.65ZM250.44 79.58C250.24 79.34 250.04 79.09 249.84 78.85 248.82 79.31 247.6 79.56 246.83 80.27 242.89 83.9 239.07 87.65 235.21 91.37 233.99 92.55 232.8 93.77 231.6 94.97 238.2 91.53 244.26 87.52 249.13 82.07 249.74 81.39 250.01 80.42 250.44 79.58Z" fill="#FFFFFF"/><path d="M129.25 82.67C130.82 82.42 132 82.41 133.05 82.04 141.13 79.22 148.75 75.72 154.62 69.33 155.47 68.41 157.31 68.34 158.88 68.27 154.58 72.99 149.03 76.33 146 82.22 147.5 81.58 149.1 81.09 150.48 80.26 154.32 77.95 157.99 75.39 161.86 73.15 164.47 71.64 167.28 70.46 170.06 69.26 170.77 68.95 171.86 68.88 172.53 69.18 175.04 70.32 176.71 69.16 178.27 67.52 181.06 64.58 183.7 61.51 186.67 58.75 187.6 57.89 189.37 57.88 190.92 57.87 178.45 71.5 164.68 83.77 153.94 99.19 153.72 99.1 152.44 98.87 152.39 98.5 152.28 97.63 152.51 96.5 153.05 95.82 156.74 91.28 160.53 86.83 164.32 82.37 165.28 81.24 166.36 80.19 167.16 78.82 164.72 80.04 162.33 81.4 159.82 82.46 156.39 83.9 153.93 83.39 152.84 81.38 150.73 82.02 148.68 82.84 146.54 83.26 143.41 83.88 142.52 82.88 143.31 79.91 140.35 80.94 137.47 82.13 134.48 82.96 130 84.2 127.69 83.51 126.31 80.9 118.59 83.16 117.75 83.07 116.93 79.92 114.34 81.14 111.76 82.4 109.14 83.56 108.38 83.89 107.48 84.1 106.66 84.07 105.79 84.03 104.94 83.63 104.08 83.39 104.36 82.59 104.41 81.59 104.95 81.02 109.81 75.96 115.31 71.66 122.05 69.15 125.48 67.87 127.08 69.18 126.37 72.53 124.43 73.07 123.61 72.23 123.75 69.99 117.31 73.17 111.97 77.12 107.26 81.89L107.61 82.54C109.24 81.74 110.95 81.05 112.5 80.12 115.39 78.37 118.15 76.41 121.05 74.68 121.96 74.14 123.15 74.05 124.22 73.75 124.29 73.97 124.35 74.19 124.42 74.41 122.9 76.52 121.39 78.63 119.87 80.74 120.1 81.02 120.33 81.29 120.55 81.57 123.73 79.94 126.98 78.43 130.06 76.64 133.93 74.4 137.6 71.83 141.49 69.62 142.82 68.87 144.55 68.48 146.1 68.48 148.39 68.47 148.97 69.72 147.66 71.55 145.05 75.19 141.13 76.43 136.81 76.7 133.44 76.91 130.76 78.76 129.26 82.68ZM156.33 81.74C162.42 79.82 167.39 76.15 172.28 72.39 172.64 72.12 172.49 71.22 172.57 70.61 171.94 70.54 171.2 70.22 170.7 70.43 164.83 72.87 159.96 76.54 156.33 81.74ZM145.08 70.56C144.9 70.3 144.71 70.03 144.53 69.77 141.64 71.57 138.75 73.37 135.87 75.18 136.01 75.39 136.14 75.6 136.28 75.8 139.97 75.24 143.16 73.9 145.08 70.56Z" fill="#FFFFFF"/><path d="M253.49 59.86C248.85 59.86 244.2 59.98 239.56 59.82 236.92 59.73 234.94 60.34 233.07 62.32 229.15 66.45 225.01 70.4 220.77 74.24 217.8 76.93 214.73 79.64 211.29 81.68 209.04 83.02 206.03 83.76 203.37 83.74 199.38 83.72 198.01 80.93 200.51 77.86 202.79 75.06 205.66 72.6 208.63 70.46 213.07 67.24 218.33 65.73 223.79 64.93 228.38 64.25 228.87 63.99 232.32 59.8L213.18 59.8C213.18 59.5 213.18 59.21 213.18 58.91 214.81 58.91 216.45 58.91 218.08 58.91 222.35 58.91 226.62 58.96 230.89 58.86 232.09 58.83 233.28 58.37 234.48 58.11 234.89 58.02 235.38 57.79 235.71 57.92 240.96 59.99 246.45 58.42 251.79 58.92 252.35 58.97 252.91 59.08 253.48 59.16 253.48 59.4 253.49 59.63 253.5 59.87ZM226.09 66.58C225.95 66.37 225.82 66.15 225.68 65.94 218.6 65.85 206.19 72.69 202.92 78.52 202.56 79.17 202.24 79.87 202.1 80.59 201.73 82.5 202.77 83.49 204.69 82.89 206.37 82.37 208.22 81.82 209.52 80.76 215.14 76.14 220.58 71.33 226.09 66.59Z" fill="#FFFFFF"/><path d="M111.55 67.2C112.6 65.32 113.34 64.2 113.87 63 114.74 61.02 114.05 59.46 111.87 59.07 106.58 58.13 101.67 59.16 97.52 62.56 95.78 63.98 95.4 66.07 96.49 67.98 97.75 70.2 99.25 72.32 100.91 74.28 105.36 79.54 104.79 81.43 97.83 82.91 92.2 84.11 86.49 84.31 80.86 82.88 79.67 82.58 78.68 81.54 77.6 80.84 78.51 79.93 79.29 78.82 80.37 78.18 81.69 77.4 83.13 76.09 85.13 77.53 83.81 78.27 82.57 78.82 81.52 79.6 79.99 80.74 80.19 81.93 82.08 82.32 87.87 83.51 93.61 83.34 99.09 80.95 101.28 79.99 101.61 78.69 100.21 76.77 98.64 74.62 96.82 72.64 95.18 70.54 91.56 65.93 92.49 62.35 97.95 59.92 102.75 57.78 107.8 57.1 112.89 58.47 114.38 58.87 116.55 60.35 116.63 61.46 116.76 63.18 115.5 65.08 114.54 66.75 114.3 67.17 112.97 67.02 111.55 67.21Z" fill="#FFFFFF"/><path d="M322.22 62.85C319.97 63.62 319.35 66.7 316.33 65.37 317.75 62.69 319.09 62.05 322.22 62.85Z" fill="#FFFFFF"/><path d="M165.4 62.86C163.61 63.59 162.96 66.89 159.94 65.24 161.84 62.51 162.67 62.12 165.4 62.86Z" fill="#FFFFFF"/></svg>