<svg viewBox="0 0 99.19 13.75" xmlns="http://www.w3.org/2000/svg" xmlns:xlink="http://www.w3.org/1999/xlink" id="Layer_1" overflow="hidden"><style>
.MsftOfcThm_Background1_Fill_v2 {
 fill:#FFFFFF; 
}
</style>
<defs></defs><path d="M20.98 0.88C21.01 0.98 20.98 1.08 20.91 1.19 20.83 1.3 20.72 1.41 20.59 1.51 20.46 1.61 20.31 1.7 20.15 1.77 19.99 1.85 19.84 1.9 19.71 1.92 19.58 1.94 19.48 1.94 19.4 1.9 19.32 1.86 19.32 1.78 19.36 1.64 19.42 1.46 19.45 1.3 19.43 1.15 19.41 1 19.36 0.87 19.27 0.77 19.19 0.67 19.08 0.6 18.95 0.55 18.82 0.5 18.69 0.5 18.54 0.53 17.78 0.7 16.91 1.33 15.92 2.43 15.54 2.86 15.18 3.29 14.86 3.73 14.54 4.16 14.24 4.6 13.96 5.03 13.68 5.46 13.41 5.9 13.14 6.34 12.87 6.78 12.59 7.22 12.31 7.67 12.02 8.12 11.71 8.57 11.37 9.02 11.03 9.47 10.66 9.93 10.25 10.39 9.46 11.26 8.75 11.93 8.13 12.38 7.46 12.84 6.89 13.08 6.43 13.08 6.33 13.08 6.23 13.07 6.13 13.04 5.8 12.97 5.57 12.8 5.45 12.54 5.37 12.36 5.34 12.14 5.36 11.88 5.38 11.62 5.45 11.31 5.56 10.94 5.66 10.64 5.78 10.3 5.93 9.94 6.08 9.58 6.24 9.21 6.4 8.82 6.7 8.14 6.98 7.44 7.25 6.72 7.52 6 7.7 5.3 7.79 4.63 7.89 3.89 7.82 3.28 7.58 2.79 7.34 2.3 6.95 1.9 6.4 1.6 6.02 1.39 5.62 1.28 5.2 1.28 4.78 1.28 4.38 1.35 3.98 1.51 3.8 1.58 3.6 1.68 3.39 1.8 3.18 1.92 2.98 2.07 2.78 2.24 2.58 2.41 2.39 2.61 2.21 2.83 2.03 3.05 1.88 3.29 1.76 3.56 1.57 3.98 1.44 4.42 1.36 4.87 1.29 5.32 1.3 5.72 1.39 6.06 1.48 6.41 1.66 6.68 1.92 6.86 2.18 7.05 2.55 7.09 3.02 6.97 3.12 6.95 3.17 7.01 3.17 7.16 3.17 7.31 3.11 7.48 3 7.67 2.89 7.86 2.73 8.03 2.51 8.17 2.3 8.32 2.04 8.38 1.72 8.34 1.35 8.3 1.04 8.19 0.8 8 0.55 7.81 0.36 7.57 0.23 7.29 0.1 7.01 0.03 6.7 0 6.34-0.02 5.98 0 5.61 0.08 5.23 0.16 4.85 0.28 4.47 0.45 4.09 0.62 3.71 0.84 3.36 1.1 3.04 1.33 2.75 1.57 2.5 1.82 2.3 2.07 2.1 2.31 1.91 2.54 1.76 2.77 1.61 2.99 1.48 3.21 1.38 3.42 1.28 3.61 1.2 3.78 1.13 4.15 0.99 4.53 0.87 4.91 0.79 5.3 0.71 5.68 0.67 6.07 0.67 6.46 0.67 6.83 0.71 7.2 0.79 7.57 0.87 7.92 1 8.24 1.17 8.91 1.54 9.38 2.01 9.66 2.6 9.77 2.87 9.84 3.16 9.87 3.48 9.9 3.8 9.89 4.14 9.85 4.51 9.81 4.85 9.74 5.19 9.65 5.53 9.55 5.87 9.44 6.22 9.31 6.57 9.18 6.92 9.04 7.26 8.9 7.6 8.75 7.94 8.61 8.27 8.46 8.59 8.32 8.92 8.18 9.24 8.04 9.55 7.9 9.86 7.79 10.15 7.7 10.42 7.61 10.69 7.55 10.93 7.51 11.15 7.48 11.37 7.49 11.54 7.56 11.68 7.62 11.82 7.7 11.88 7.81 11.88 7.92 11.88 8.05 11.84 8.19 11.75 8.33 11.67 8.49 11.55 8.65 11.41 8.81 11.27 8.97 11.11 9.13 10.95 9.29 10.79 9.43 10.63 9.57 10.48 9.71 10.33 9.82 10.2 9.91 10.11 10.33 9.65 10.7 9.19 11.03 8.73 11.36 8.27 11.67 7.83 11.97 7.39 12.27 6.95 12.54 6.51 12.8 6.08 13.06 5.64 13.34 5.21 13.62 4.78 13.9 4.35 14.2 3.91 14.52 3.48 14.84 3.04 15.2 2.61 15.6 2.17 16.08 1.62 16.54 1.18 16.97 0.85 17.51 0.45 18.02 0.19 18.52 0.08 18.7 0.04 18.91 0.02 19.16 0.01 19.41 0.01 19.65 0.02 19.9 0.08 20.14 0.13 20.37 0.22 20.57 0.35 20.77 0.48 20.91 0.66 20.99 0.89Z" class="MsftOfcThm_Background1_Fill_v2" fill="#FFFFFF"/><path d="M18.54 6.81C18.42 7.05 18.28 7.3 18.11 7.57 17.95 7.84 17.77 8.11 17.58 8.38 17.39 8.65 17.19 8.9 16.99 9.12 16.79 9.34 16.58 9.53 16.37 9.67 16.16 9.81 15.96 9.89 15.77 9.89 15.61 9.89 15.47 9.87 15.36 9.79 15.24 9.72 15.15 9.62 15.08 9.48 15.01 9.35 14.96 9.19 14.94 9 14.92 8.81 14.92 8.61 14.94 8.39 14.97 8.13 15.03 7.85 15.13 7.55 15.23 7.25 15.33 6.96 15.45 6.66 15.57 6.36 15.69 6.08 15.82 5.8 15.94 5.52 16.05 5.27 16.14 5.05 16.23 4.83 16.3 4.64 16.33 4.49 16.37 4.34 16.36 4.23 16.3 4.18 16.24 4.13 16.27 4.08 16.38 4.01 16.49 3.95 16.62 3.91 16.78 3.9 16.94 3.9 17.11 3.93 17.28 4.01 17.45 4.09 17.57 4.25 17.65 4.49 17.72 4.72 17.71 5 17.61 5.34 17.51 5.68 17.38 6.02 17.21 6.38 17.04 6.74 16.85 7.1 16.66 7.45 16.47 7.8 16.3 8.12 16.17 8.39 16.04 8.67 15.96 8.89 15.94 9.05 15.92 9.21 16 9.29 16.19 9.27 16.27 9.27 16.37 9.2 16.5 9.08 16.63 8.96 16.76 8.81 16.91 8.62 17.06 8.43 17.22 8.22 17.38 7.99 17.54 7.76 17.69 7.53 17.84 7.29 17.98 7.06 18.11 6.84 18.22 6.63 18.33 6.42 18.41 6.25 18.46 6.11 18.48 6.05 18.52 6.01 18.58 5.99 18.64 5.97 18.69 5.97 18.74 5.99 18.79 6.01 18.83 6.04 18.85 6.09 18.88 6.14 18.88 6.19 18.85 6.25 18.79 6.39 18.69 6.57 18.57 6.81ZM18.02 3.07C18.06 2.97 18.11 2.88 18.16 2.78 18.21 2.68 18.26 2.59 18.3 2.5 18.34 2.41 18.37 2.34 18.37 2.3 18.37 2.1 18.31 1.94 18.19 1.81 18.07 1.68 17.94 1.59 17.79 1.52 17.64 1.46 17.51 1.42 17.39 1.42 17.27 1.42 17.21 1.45 17.21 1.5 17.21 1.55 17.19 1.62 17.14 1.7 17.09 1.79 17.04 1.88 16.98 1.99 16.92 2.09 16.87 2.19 16.82 2.28 16.77 2.37 16.75 2.45 16.75 2.5 16.75 2.7 16.81 2.87 16.94 3 17.07 3.13 17.21 3.23 17.35 3.29 17.49 3.35 17.64 3.38 17.76 3.38 17.88 3.38 17.95 3.35 17.95 3.28 17.95 3.22 17.97 3.15 18.02 3.05Z" class="MsftOfcThm_Background1_Fill_v2" fill="#FFFFFF"/><path d="M23.18 6.01C23.28 6.07 23.3 6.16 23.25 6.27 23.11 6.56 22.95 6.86 22.76 7.18 22.57 7.5 22.36 7.8 22.12 8.1 21.88 8.4 21.63 8.68 21.37 8.93 21.11 9.18 20.83 9.39 20.55 9.55 20.27 9.71 19.98 9.81 19.68 9.86 19.38 9.91 19.09 9.87 18.8 9.75 18.48 9.62 18.25 9.44 18.11 9.19 17.97 8.95 17.89 8.68 17.86 8.38 17.84 8.08 17.86 7.78 17.93 7.46 18 7.14 18.09 6.85 18.19 6.59 18.38 6.1 18.6 5.69 18.83 5.35 19.07 5.01 19.32 4.73 19.58 4.52 19.84 4.3 20.12 4.14 20.4 4.04 20.68 3.94 20.96 3.88 21.25 3.88 21.54 3.88 21.76 3.95 21.9 4.1 22.04 4.25 22.11 4.43 22.11 4.66 22.11 4.89 22.05 5.15 21.92 5.43 21.79 5.71 21.61 5.98 21.37 6.25 21.13 6.52 20.85 6.76 20.51 6.98 20.17 7.2 19.8 7.37 19.38 7.48 19.32 7.69 19.28 7.89 19.26 8.1 19.24 8.3 19.23 8.49 19.25 8.66 19.27 8.83 19.3 8.97 19.36 9.08 19.42 9.19 19.51 9.26 19.63 9.28 19.81 9.31 20 9.28 20.2 9.2 20.4 9.12 20.61 8.99 20.82 8.82 21.03 8.65 21.24 8.46 21.44 8.23 21.64 8 21.84 7.77 22.02 7.52 22.2 7.27 22.36 7.03 22.5 6.78 22.64 6.54 22.75 6.31 22.83 6.1 22.85 6.04 22.9 5.99 22.96 5.97 23.02 5.95 23.08 5.95 23.15 5.99ZM19.66 6.77C19.62 6.86 19.59 6.94 19.56 7.01 20.04 6.84 20.43 6.61 20.74 6.32 21.05 6.03 21.28 5.74 21.43 5.46 21.58 5.18 21.66 4.93 21.66 4.72 21.66 4.51 21.59 4.4 21.45 4.4 21.23 4.4 20.96 4.6 20.63 5.02 20.3 5.44 19.97 6.03 19.65 6.77Z" class="MsftOfcThm_Background1_Fill_v2" fill="#FFFFFF"/><path d="M29.94 4.51C30 4.74 29.99 5.04 29.94 5.4 29.88 5.76 29.77 6.14 29.62 6.54 29.47 6.94 29.27 7.34 29.03 7.75 28.79 8.15 28.52 8.52 28.22 8.84 27.92 9.16 27.59 9.42 27.24 9.62 26.89 9.82 26.52 9.91 26.14 9.91 25.84 9.91 25.59 9.86 25.41 9.76 25.23 9.66 25.1 9.53 25.01 9.36 24.92 9.19 24.88 9 24.87 8.78 24.87 8.56 24.89 8.32 24.94 8.07 24.79 8.31 24.63 8.54 24.47 8.76 24.31 8.98 24.14 9.17 23.97 9.34 23.8 9.51 23.63 9.63 23.45 9.73 23.28 9.83 23.11 9.88 22.94 9.89 22.78 9.89 22.64 9.87 22.53 9.79 22.41 9.72 22.32 9.62 22.25 9.48 22.18 9.35 22.13 9.19 22.11 9 22.09 8.81 22.09 8.61 22.11 8.39 22.14 8.13 22.2 7.85 22.3 7.55 22.4 7.25 22.5 6.96 22.62 6.66 22.74 6.36 22.86 6.08 22.99 5.8 23.11 5.52 23.22 5.27 23.31 5.05 23.4 4.83 23.47 4.64 23.5 4.48 23.54 4.32 23.53 4.22 23.47 4.17 23.41 4.12 23.44 4.07 23.55 4 23.66 3.94 23.79 3.9 23.95 3.89 24.11 3.89 24.28 3.92 24.45 4 24.62 4.08 24.74 4.24 24.82 4.48 24.89 4.71 24.88 4.99 24.78 5.33 24.68 5.66 24.55 6.01 24.38 6.37 24.21 6.73 24.02 7.09 23.83 7.44 23.64 7.79 23.47 8.11 23.34 8.39 23.21 8.67 23.13 8.89 23.11 9.05 23.09 9.21 23.17 9.28 23.36 9.26 23.46 9.26 23.57 9.18 23.71 9.04 23.85 8.9 24 8.72 24.16 8.5 24.32 8.28 24.48 8.03 24.65 7.75 24.82 7.47 24.98 7.18 25.14 6.89 25.3 6.59 25.44 6.31 25.58 6.03 25.72 5.75 25.83 5.5 25.93 5.27 26.04 4.99 26.12 4.75 26.17 4.56 26.22 4.37 26.21 4.24 26.15 4.18 26.09 4.13 26.12 4.08 26.23 4.01 26.34 3.95 26.47 3.91 26.63 3.9 26.79 3.9 26.96 3.93 27.13 4.01 27.3 4.09 27.42 4.25 27.5 4.49 27.57 4.72 27.56 5.01 27.46 5.34 27.36 5.67 27.23 6.03 27.06 6.39 26.89 6.75 26.71 7.12 26.53 7.48 26.34 7.84 26.19 8.16 26.09 8.45 25.98 8.74 25.94 8.97 25.96 9.15 25.98 9.33 26.11 9.42 26.36 9.42 26.61 9.42 26.83 9.3 27.05 9.05 27.27 8.81 27.47 8.5 27.66 8.13 27.85 7.76 28.01 7.35 28.16 6.92 28.3 6.48 28.42 6.07 28.52 5.68 28.62 5.29 28.68 4.96 28.71 4.68 28.74 4.4 28.74 4.24 28.71 4.19 28.68 4.14 28.71 4.09 28.82 4.02 28.92 3.96 29.05 3.92 29.2 3.91 29.35 3.91 29.5 3.94 29.66 4.02 29.81 4.1 29.92 4.26 29.98 4.5Z" class="MsftOfcThm_Background1_Fill_v2" fill="#FFFFFF"/><path d="M45.9 4.11C46.04 4.93 46.01 5.82 45.79 6.77 45.69 7.23 45.54 7.69 45.36 8.15 45.18 8.61 44.96 9.04 44.7 9.45 44.2 10.28 43.58 11.01 42.84 11.62 42.45 11.94 42.03 12.22 41.57 12.46 41.12 12.7 40.65 12.89 40.17 13.02 39.69 13.15 39.19 13.23 38.69 13.25 38.19 13.27 37.69 13.22 37.19 13.11 36.73 13.01 36.31 12.86 35.93 12.65 35.55 12.44 35.21 12.19 34.93 11.88 34.65 11.58 34.42 11.22 34.23 10.8 34.05 10.38 33.92 9.92 33.85 9.42 33.79 8.92 33.78 8.41 33.82 7.89 33.86 7.37 33.96 6.84 34.1 6.3 34.25 5.78 34.45 5.26 34.7 4.75 34.95 4.24 35.24 3.75 35.58 3.29 35.92 2.82 36.29 2.39 36.68 2.01 37.07 1.63 37.48 1.3 37.92 1.03 38.17 0.87 38.44 0.78 38.73 0.75 39.02 0.72 39.28 0.74 39.49 0.79 39.71 0.85 39.85 0.93 39.92 1.05 39.99 1.17 39.92 1.29 39.73 1.42 39.31 1.7 38.91 2.02 38.54 2.39 38.17 2.76 37.83 3.16 37.51 3.59 37.2 4.02 36.93 4.48 36.69 4.95 36.46 5.43 36.27 5.92 36.13 6.42 35.99 6.92 35.91 7.41 35.87 7.9 35.83 8.39 35.85 8.86 35.91 9.3 35.97 9.75 36.08 10.16 36.23 10.55 36.39 10.93 36.59 11.27 36.84 11.55 37.22 11.97 37.65 12.26 38.13 12.41 38.61 12.56 39.11 12.61 39.62 12.55 40.13 12.49 40.64 12.34 41.14 12.11 41.64 11.88 42.1 11.59 42.52 11.23 42.86 10.95 43.19 10.64 43.49 10.29 43.79 9.94 44.06 9.57 44.29 9.18 44.53 8.79 44.74 8.38 44.91 7.94 45.08 7.5 45.22 7.08 45.32 6.64 45.42 6.21 45.47 5.78 45.49 5.37 45.51 4.95 45.49 4.56 45.41 4.18 45.34 3.76 45.21 3.37 45.02 2.99 44.83 2.61 44.6 2.3 44.34 2.06 44.07 1.82 43.77 1.67 43.43 1.62 43.09 1.57 42.73 1.65 42.35 1.88 41.97 2.1 41.61 2.38 41.28 2.74 40.95 3.1 40.69 3.49 40.49 3.9 40.31 4.31 40.18 4.73 40.12 5.18 40.06 5.63 40.06 6.06 40.13 6.48 40.15 6.66 40.19 6.82 40.24 6.98 40.29 7.14 40.35 7.29 40.42 7.45 40.49 7.61 40.58 7.77 40.67 7.93 40.77 8.09 40.88 8.28 41.01 8.48 41.07 8.58 41.09 8.68 41.05 8.77 41.01 8.86 40.93 8.94 40.82 9 40.71 9.06 40.57 9.11 40.42 9.14 40.26 9.17 40.1 9.18 39.93 9.17 39.76 9.16 39.6 9.12 39.44 9.05 39.28 8.98 39.16 8.88 39.06 8.76 38.79 8.4 38.57 8.04 38.42 7.68 38.26 7.32 38.15 6.94 38.09 6.55 38.02 6.11 38.01 5.65 38.08 5.16 38.12 4.9 38.17 4.65 38.24 4.41 38.3 4.17 38.39 3.93 38.5 3.7 38.61 3.47 38.74 3.24 38.89 3.02 39.04 2.8 39.2 2.59 39.39 2.39 39.74 2.01 40.13 1.7 40.55 1.45 40.95 1.23 41.36 1.07 41.79 0.99 42.22 0.91 42.63 0.9 43.04 0.97 43.4 1.03 43.74 1.15 44.05 1.32 44.37 1.49 44.65 1.72 44.91 2 45.16 2.27 45.36 2.58 45.53 2.94 45.69 3.29 45.82 3.67 45.9 4.08Z" class="MsftOfcThm_Background1_Fill_v2" fill="#FFFFFF"/><path d="M52.88 6.25C52.82 6.39 52.72 6.57 52.6 6.81 52.48 7.05 52.34 7.3 52.17 7.57 52.01 7.84 51.83 8.11 51.64 8.38 51.45 8.65 51.25 8.9 51.05 9.12 50.85 9.34 50.64 9.53 50.43 9.67 50.22 9.81 50.02 9.89 49.83 9.89 49.67 9.89 49.53 9.87 49.42 9.79 49.3 9.72 49.21 9.62 49.14 9.48 49.07 9.35 49.02 9.19 49 9 48.98 8.81 48.98 8.61 49 8.39 49 8.35 49 8.31 49.01 8.28 49.01 8.24 49.03 8.21 49.03 8.17 48.88 8.39 48.72 8.61 48.56 8.81 48.4 9.01 48.23 9.2 48.06 9.36 47.89 9.52 47.72 9.65 47.56 9.74 47.4 9.83 47.23 9.88 47.08 9.88 46.92 9.88 46.78 9.86 46.67 9.78 46.55 9.71 46.46 9.61 46.39 9.47 46.32 9.34 46.27 9.18 46.25 8.99 46.23 8.8 46.23 8.6 46.25 8.38 46.28 8.12 46.34 7.84 46.44 7.54 46.54 7.24 46.64 6.95 46.76 6.65 46.88 6.35 47 6.07 47.13 5.79 47.25 5.51 47.36 5.26 47.45 5.04 47.54 4.82 47.61 4.63 47.64 4.48 47.68 4.33 47.67 4.22 47.61 4.17 47.55 4.12 47.58 4.07 47.69 4 47.8 3.94 47.93 3.9 48.09 3.89 48.25 3.89 48.42 3.92 48.59 4 48.76 4.08 48.88 4.24 48.96 4.48 49.03 4.71 49.02 4.99 48.92 5.33 48.82 5.67 48.69 6.01 48.52 6.37 48.35 6.73 48.16 7.09 47.97 7.44 47.78 7.79 47.61 8.11 47.48 8.38 47.35 8.66 47.27 8.88 47.25 9.04 47.23 9.2 47.31 9.28 47.5 9.26 47.6 9.26 47.74 9.15 47.92 8.96 48.1 8.77 48.3 8.53 48.5 8.25 48.7 7.97 48.9 7.67 49.1 7.35 49.3 7.03 49.46 6.75 49.59 6.5 49.71 6.22 49.83 5.95 49.94 5.7 50.06 5.44 50.16 5.21 50.24 5 50.32 4.79 50.38 4.61 50.41 4.47 50.44 4.33 50.43 4.23 50.37 4.18 50.31 4.13 50.34 4.08 50.45 4.01 50.56 3.95 50.69 3.91 50.85 3.9 51.01 3.9 51.18 3.93 51.35 4.01 51.52 4.09 51.64 4.25 51.72 4.49 51.79 4.72 51.78 5 51.68 5.34 51.58 5.67 51.45 6.02 51.28 6.38 51.11 6.74 50.92 7.1 50.73 7.45 50.53 7.8 50.37 8.12 50.24 8.39 50.11 8.67 50.03 8.89 50.01 9.05 49.99 9.21 50.07 9.29 50.26 9.27 50.33 9.27 50.43 9.2 50.56 9.08 50.69 8.96 50.83 8.81 50.98 8.62 51.13 8.43 51.29 8.22 51.45 7.99 51.61 7.76 51.76 7.53 51.91 7.29 52.05 7.06 52.18 6.84 52.29 6.63 52.4 6.42 52.48 6.25 52.53 6.11 52.55 6.05 52.59 6.01 52.65 5.99 52.71 5.97 52.76 5.97 52.81 5.99 52.86 6.01 52.9 6.04 52.92 6.09 52.95 6.14 52.95 6.19 52.92 6.25Z" class="MsftOfcThm_Background1_Fill_v2" fill="#FFFFFF"/><path d="M52.83 6.37C52.83 6.37 52.77 6.45 52.72 6.47 52.67 6.49 52.62 6.49 52.58 6.47 52.54 6.45 52.5 6.42 52.47 6.38 52.44 6.34 52.44 6.28 52.47 6.22 52.49 6.15 52.54 6.04 52.6 5.89 52.66 5.74 52.73 5.59 52.79 5.42 52.85 5.26 52.92 5.1 52.98 4.94 53.04 4.78 53.09 4.65 53.11 4.55 52.93 4.46 52.77 4.32 52.64 4.13 52.51 3.94 52.44 3.75 52.44 3.55 52.44 3.3 52.5 3.09 52.63 2.91 52.76 2.73 52.95 2.65 53.21 2.65 53.37 2.65 53.51 2.72 53.62 2.85 53.73 2.98 53.8 3.14 53.81 3.32 53.81 3.42 53.81 3.57 53.79 3.75 53.78 3.93 53.76 4.09 53.72 4.21 53.76 4.24 53.81 4.26 53.88 4.27 53.95 4.27 54.02 4.28 54.1 4.28 54.28 4.28 54.41 4.26 54.51 4.22 54.61 4.18 54.7 4.14 54.77 4.09 54.84 4.04 54.91 4 54.99 3.96 55.07 3.92 55.16 3.9 55.28 3.9 55.44 3.9 55.6 3.94 55.76 4.02 55.92 4.1 56.04 4.26 56.11 4.49 56.18 4.72 56.17 5 56.07 5.34 55.97 5.68 55.84 6.02 55.67 6.38 55.5 6.74 55.31 7.1 55.12 7.45 54.93 7.8 54.76 8.12 54.63 8.39 54.5 8.67 54.42 8.89 54.4 9.05 54.38 9.21 54.46 9.29 54.65 9.27 54.72 9.27 54.82 9.2 54.95 9.08 55.08 8.96 55.22 8.81 55.37 8.62 55.52 8.43 55.68 8.22 55.84 7.99 56 7.76 56.15 7.53 56.3 7.29 56.44 7.06 56.57 6.84 56.68 6.63 56.79 6.42 56.87 6.25 56.92 6.11 56.94 6.05 56.98 6.01 57.04 5.99 57.1 5.97 57.15 5.97 57.2 5.99 57.25 6.01 57.29 6.04 57.31 6.09 57.34 6.14 57.34 6.19 57.31 6.25 57.25 6.39 57.15 6.57 57.03 6.81 56.91 7.05 56.77 7.3 56.6 7.57 56.44 7.84 56.26 8.11 56.07 8.38 55.88 8.65 55.68 8.9 55.48 9.12 55.28 9.34 55.07 9.53 54.86 9.67 54.65 9.81 54.45 9.89 54.26 9.89 54.1 9.89 53.96 9.87 53.85 9.79 53.73 9.72 53.64 9.62 53.57 9.48 53.5 9.35 53.45 9.19 53.43 9 53.41 8.81 53.41 8.61 53.43 8.39 53.46 8.08 53.54 7.75 53.66 7.39 53.78 7.03 53.91 6.69 54.06 6.35 54.2 6.01 54.34 5.69 54.48 5.4 54.62 5.11 54.72 4.85 54.78 4.64 54.61 4.7 54.42 4.74 54.21 4.75 54 4.76 53.79 4.75 53.58 4.68 53.56 4.74 53.51 4.84 53.45 4.99 53.39 5.14 53.32 5.3 53.25 5.47 53.18 5.64 53.11 5.81 53.03 5.97 52.96 6.13 52.9 6.26 52.85 6.35Z" class="MsftOfcThm_Background1_Fill_v2" fill="#FFFFFF"/><path d="M69.58 6.18C69.64 6.2 69.68 6.25 69.7 6.31 69.72 6.37 69.7 6.43 69.66 6.5 69.52 6.79 69.36 7.08 69.19 7.38 69.02 7.68 68.85 7.97 68.67 8.25 68.49 8.53 68.32 8.81 68.14 9.07 67.96 9.33 67.79 9.57 67.62 9.78 67 10.59 66.37 11.26 65.72 11.78 65.11 12.27 64.51 12.62 63.92 12.84 63.71 12.93 63.49 12.99 63.27 13.03 63.04 13.07 62.82 13.09 62.6 13.09 62.34 13.09 62.09 13.06 61.84 12.99 61.59 12.92 61.36 12.83 61.16 12.69 60.79 12.47 60.5 12.19 60.28 11.85 60.06 11.51 59.91 11.13 59.82 10.73 59.73 10.33 59.7 9.9 59.73 9.46 59.76 9.02 59.83 8.6 59.94 8.19 60.14 7.49 60.36 6.83 60.6 6.23 60.84 5.63 61.12 5.06 61.43 4.54 61.75 4.02 62.1 3.52 62.5 3.05 62.9 2.58 63.36 2.13 63.87 1.7 64.04 1.56 64.26 1.41 64.54 1.27 64.82 1.13 65.12 1.02 65.44 0.95 65.76 0.88 66.09 0.87 66.43 0.91 66.77 0.96 67.08 1.11 67.37 1.35 67.59 1.54 67.77 1.82 67.91 2.18 68.05 2.54 68.11 2.94 68.11 3.36 68.11 3.78 68.03 4.2 67.88 4.63 67.72 5.06 67.47 5.43 67.12 5.74 67.01 5.84 66.86 5.87 66.68 5.84 66.5 5.81 66.33 5.75 66.17 5.66 66.01 5.57 65.9 5.46 65.83 5.34 65.76 5.22 65.78 5.11 65.9 5.01 66.12 4.83 66.32 4.61 66.49 4.33 66.66 4.05 66.8 3.76 66.89 3.45 66.99 3.15 67.04 2.85 67.05 2.57 67.05 2.29 67.01 2.05 66.92 1.87 66.83 1.72 66.69 1.66 66.49 1.7 66.29 1.74 66.05 1.85 65.78 2.05 65.5 2.25 65.21 2.51 64.89 2.85 64.57 3.19 64.25 3.58 63.93 4.03 63.69 4.37 63.47 4.73 63.26 5.12 63.05 5.51 62.87 5.89 62.7 6.27 62.54 6.65 62.39 7.02 62.27 7.37 62.15 7.72 62.05 8.03 61.98 8.31 61.84 8.84 61.76 9.33 61.76 9.79 61.76 10.25 61.82 10.65 61.93 11 62.05 11.35 62.22 11.63 62.44 11.85 62.66 12.07 62.93 12.21 63.23 12.26 63.53 12.31 63.87 12.27 64.24 12.15 64.61 12.03 65.01 11.79 65.43 11.44 65.75 11.18 66.08 10.86 66.41 10.5 66.74 10.14 67.07 9.74 67.39 9.31 67.71 8.87 68.03 8.41 68.34 7.91 68.65 7.41 68.94 6.89 69.22 6.34 69.3 6.2 69.41 6.16 69.56 6.22Z" class="MsftOfcThm_Background1_Fill_v2" fill="#FFFFFF"/><path d="M72.34 4.86C72.34 4.8 72.36 4.74 72.39 4.68 72.42 4.62 72.47 4.58 72.53 4.54 72.49 4.44 72.43 4.4 72.34 4.4 72.23 4.4 72.1 4.44 71.97 4.55 71.84 4.66 71.69 4.81 71.53 5.02 71.37 5.22 71.21 5.48 71.04 5.78 70.87 6.08 70.7 6.41 70.54 6.78 70.44 7.01 70.35 7.26 70.28 7.53 70.21 7.8 70.17 8.05 70.17 8.3 70.17 8.54 70.19 8.76 70.24 8.94 70.3 9.12 70.4 9.24 70.54 9.3 70.65 9.35 70.77 9.34 70.89 9.26 71.01 9.19 71.14 9.08 71.26 8.92 71.38 8.77 71.51 8.58 71.64 8.37 71.77 8.15 71.9 7.93 72.02 7.69 72.14 7.45 72.26 7.22 72.38 6.98 72.5 6.74 72.61 6.53 72.71 6.33 72.82 6.07 72.93 5.82 73.04 5.58 73.15 5.34 73.24 5.13 73.31 4.94 73.38 4.75 73.43 4.59 73.45 4.46 73.47 4.33 73.46 4.24 73.41 4.19 73.35 4.14 73.38 4.09 73.49 4.02 73.6 3.96 73.73 3.92 73.89 3.91 74.05 3.91 74.22 3.94 74.39 4.02 74.56 4.1 74.68 4.26 74.76 4.5 74.83 4.73 74.82 5.01 74.72 5.35 74.62 5.68 74.49 6.03 74.32 6.39 74.15 6.75 73.96 7.11 73.77 7.46 73.57 7.81 73.41 8.13 73.28 8.4 73.15 8.67 73.07 8.9 73.05 9.06 73.03 9.22 73.11 9.3 73.3 9.28 73.37 9.28 73.47 9.21 73.6 9.09 73.73 8.97 73.87 8.82 74.02 8.63 74.17 8.44 74.33 8.23 74.49 8 74.65 7.77 74.81 7.54 74.95 7.3 75.09 7.07 75.22 6.85 75.33 6.64 75.44 6.43 75.52 6.26 75.57 6.12 75.59 6.06 75.63 6.02 75.69 6 75.75 5.98 75.8 5.98 75.85 6 75.9 6.02 75.94 6.05 75.96 6.1 75.98 6.15 75.99 6.2 75.96 6.26 75.9 6.4 75.8 6.58 75.68 6.82 75.56 7.06 75.42 7.31 75.25 7.58 75.09 7.85 74.91 8.12 74.72 8.39 74.53 8.66 74.33 8.91 74.13 9.13 73.93 9.35 73.72 9.54 73.51 9.68 73.3 9.82 73.1 9.9 72.91 9.9 72.61 9.92 72.38 9.79 72.23 9.53 72.08 9.27 72.02 8.93 72.06 8.52 71.91 8.77 71.75 8.99 71.58 9.2 71.41 9.41 71.23 9.57 71.03 9.69 70.83 9.81 70.63 9.88 70.41 9.91 70.19 9.93 69.95 9.89 69.68 9.78 69.36 9.65 69.13 9.46 68.99 9.22 68.85 8.97 68.77 8.7 68.74 8.41 68.72 8.12 68.74 7.81 68.81 7.5 68.88 7.18 68.97 6.89 69.07 6.63 69.26 6.14 69.48 5.72 69.71 5.38 69.94 5.04 70.2 4.75 70.46 4.53 70.72 4.31 71 4.15 71.28 4.06 71.56 3.96 71.84 3.92 72.13 3.93 72.23 3.93 72.33 3.96 72.44 3.98 72.55 4.01 72.65 4.05 72.74 4.12 72.83 4.19 72.91 4.27 72.97 4.38 73.03 4.49 73.07 4.62 73.07 4.78 73.07 4.96 73.03 5.08 72.95 5.14 72.89 5.21 72.8 5.25 72.7 5.25 72.6 5.25 72.52 5.22 72.44 5.15 72.36 5.09 72.33 5 72.33 4.9Z" class="MsftOfcThm_Background1_Fill_v2" fill="#FFFFFF"/><path d="M73.9 3.4C73.9 3.51 73.86 3.59 73.81 3.62 73.76 3.65 73.69 3.65 73.63 3.61 73.56 3.57 73.51 3.48 73.47 3.36 73.43 3.24 73.41 3.07 73.43 2.86 73.46 2.52 73.59 2.27 73.82 2.09 74.05 1.91 74.34 1.8 74.71 1.74 75.07 1.68 75.49 1.66 75.95 1.67 76.41 1.69 76.89 1.72 77.38 1.77 77.52 1.41 77.62 1.11 77.68 0.88 77.74 0.65 77.76 0.51 77.72 0.47 77.66 0.42 77.69 0.37 77.8 0.3 77.91 0.24 78.04 0.2 78.2 0.19 78.36 0.19 78.53 0.22 78.7 0.3 78.87 0.38 78.99 0.54 79.07 0.78 79.11 0.89 79.11 1.04 79.08 1.24 79.05 1.43 79 1.65 78.92 1.89 79.27 1.91 79.62 1.91 79.98 1.89 80.33 1.87 80.65 1.84 80.93 1.8 81.21 1.76 81.44 1.7 81.61 1.63 81.78 1.56 81.87 1.47 81.87 1.37 81.87 1.25 81.91 1.19 81.98 1.18 82.05 1.18 82.12 1.21 82.2 1.27 82.28 1.33 82.32 1.42 82.35 1.52 82.38 1.62 82.35 1.72 82.25 1.81 82.15 1.91 81.98 2.01 81.75 2.1 81.52 2.19 81.25 2.27 80.93 2.34 80.61 2.41 80.26 2.47 79.88 2.51 79.5 2.56 79.1 2.59 78.68 2.59 78.51 3.02 78.31 3.49 78.07 3.99 77.83 4.49 77.6 5 77.36 5.5 77.12 6 76.9 6.48 76.68 6.94 76.46 7.4 76.28 7.8 76.15 8.15 76.02 8.5 75.94 8.78 75.91 8.98 75.88 9.19 75.94 9.28 76.08 9.27 76.16 9.27 76.26 9.2 76.39 9.08 76.52 8.96 76.65 8.81 76.8 8.62 76.95 8.43 77.11 8.22 77.27 7.99 77.43 7.76 77.58 7.53 77.73 7.29 77.87 7.06 78 6.84 78.11 6.63 78.22 6.42 78.3 6.25 78.35 6.11 78.37 6.05 78.41 6.01 78.47 5.99 78.53 5.97 78.58 5.97 78.63 5.99 78.68 6.01 78.72 6.04 78.74 6.09 78.77 6.14 78.77 6.19 78.74 6.25 78.68 6.39 78.58 6.57 78.46 6.81 78.34 7.05 78.2 7.3 78.03 7.57 77.87 7.84 77.69 8.11 77.5 8.38 77.31 8.65 77.11 8.9 76.91 9.12 76.71 9.34 76.5 9.53 76.29 9.67 76.08 9.81 75.88 9.89 75.69 9.89 75.53 9.89 75.39 9.87 75.28 9.79 75.16 9.72 75.07 9.62 75 9.48 74.93 9.35 74.88 9.19 74.86 9 74.84 8.81 74.84 8.61 74.86 8.39 74.89 8.14 74.99 7.79 75.14 7.34 75.3 6.89 75.48 6.39 75.7 5.85 75.92 5.31 76.15 4.75 76.39 4.18 76.63 3.61 76.86 3.07 77.07 2.58 76.65 2.58 76.26 2.58 75.88 2.6 75.5 2.61 75.17 2.65 74.89 2.7 74.61 2.76 74.38 2.84 74.21 2.95 74.04 3.06 73.95 3.2 73.94 3.39Z" class="MsftOfcThm_Background1_Fill_v2" fill="#FFFFFF"/><path d="M81.38 4.86C81.38 4.8 81.4 4.74 81.43 4.68 81.46 4.62 81.51 4.58 81.57 4.54 81.53 4.44 81.47 4.4 81.38 4.4 81.27 4.4 81.14 4.44 81.01 4.55 80.88 4.66 80.73 4.81 80.57 5.02 80.41 5.22 80.25 5.48 80.08 5.78 79.91 6.08 79.74 6.41 79.58 6.78 79.48 7.01 79.39 7.26 79.32 7.53 79.25 7.8 79.21 8.05 79.21 8.3 79.21 8.54 79.23 8.76 79.28 8.94 79.34 9.12 79.44 9.24 79.58 9.3 79.69 9.35 79.81 9.34 79.93 9.26 80.05 9.19 80.18 9.08 80.3 8.92 80.42 8.77 80.55 8.58 80.68 8.37 80.81 8.15 80.94 7.93 81.06 7.69 81.18 7.45 81.3 7.22 81.42 6.98 81.54 6.74 81.65 6.53 81.75 6.33 81.86 6.07 81.97 5.82 82.08 5.58 82.19 5.34 82.28 5.13 82.35 4.94 82.42 4.75 82.47 4.59 82.49 4.46 82.51 4.33 82.5 4.24 82.45 4.19 82.39 4.14 82.42 4.09 82.53 4.02 82.64 3.96 82.77 3.92 82.93 3.91 83.09 3.91 83.26 3.94 83.43 4.02 83.6 4.1 83.72 4.26 83.8 4.5 83.87 4.73 83.86 5.01 83.76 5.35 83.66 5.68 83.53 6.03 83.36 6.39 83.19 6.75 83 7.11 82.81 7.46 82.61 7.81 82.45 8.13 82.32 8.4 82.19 8.67 82.11 8.9 82.09 9.06 82.07 9.22 82.15 9.3 82.34 9.28 82.41 9.28 82.51 9.21 82.64 9.09 82.77 8.97 82.91 8.82 83.06 8.63 83.21 8.44 83.37 8.23 83.53 8 83.69 7.77 83.85 7.54 83.99 7.3 84.13 7.07 84.26 6.85 84.37 6.64 84.48 6.43 84.56 6.26 84.61 6.12 84.63 6.06 84.67 6.02 84.73 6 84.79 5.98 84.84 5.98 84.89 6 84.94 6.02 84.98 6.05 85 6.1 85.02 6.15 85.03 6.2 85 6.26 84.94 6.4 84.84 6.58 84.72 6.82 84.6 7.06 84.46 7.31 84.29 7.58 84.13 7.85 83.95 8.12 83.76 8.39 83.57 8.66 83.37 8.91 83.17 9.13 82.97 9.35 82.76 9.54 82.55 9.68 82.34 9.82 82.14 9.9 81.95 9.9 81.65 9.92 81.42 9.79 81.27 9.53 81.12 9.27 81.06 8.93 81.1 8.52 80.95 8.77 80.79 8.99 80.62 9.2 80.45 9.41 80.27 9.57 80.07 9.69 79.87 9.81 79.67 9.88 79.45 9.91 79.23 9.93 78.99 9.89 78.72 9.78 78.4 9.65 78.17 9.46 78.03 9.22 77.89 8.97 77.81 8.7 77.78 8.41 77.76 8.12 77.78 7.81 77.85 7.5 77.92 7.18 78.01 6.89 78.11 6.63 78.3 6.14 78.52 5.72 78.75 5.38 78.98 5.04 79.24 4.75 79.5 4.53 79.76 4.31 80.04 4.15 80.32 4.06 80.6 3.96 80.88 3.92 81.17 3.93 81.27 3.93 81.37 3.96 81.48 3.98 81.59 4.01 81.69 4.05 81.78 4.12 81.87 4.19 81.95 4.27 82.01 4.38 82.07 4.49 82.11 4.62 82.11 4.78 82.11 4.96 82.07 5.08 81.99 5.14 81.93 5.21 81.84 5.25 81.74 5.25 81.64 5.25 81.56 5.22 81.48 5.15 81.4 5.09 81.37 5 81.37 4.9Z" class="MsftOfcThm_Background1_Fill_v2" fill="#FFFFFF"/><path d="M87.76 6.25C87.7 6.39 87.6 6.57 87.48 6.81 87.36 7.05 87.22 7.3 87.05 7.57 86.89 7.84 86.71 8.11 86.52 8.38 86.33 8.65 86.13 8.9 85.93 9.12 85.73 9.34 85.52 9.53 85.31 9.67 85.1 9.81 84.9 9.89 84.71 9.89 84.55 9.89 84.41 9.87 84.3 9.79 84.18 9.72 84.09 9.62 84.02 9.48 83.95 9.35 83.9 9.19 83.88 9 83.86 8.81 83.86 8.61 83.88 8.39 83.91 8.13 84.01 7.75 84.18 7.27 84.35 6.79 84.55 6.26 84.78 5.69 85.01 5.12 85.26 4.53 85.51 3.94 85.77 3.34 86 2.8 86.2 2.3 86.4 1.8 86.56 1.38 86.67 1.05 86.78 0.72 86.81 0.52 86.75 0.46 86.69 0.41 86.72 0.36 86.83 0.29 86.94 0.23 87.07 0.19 87.23 0.18 87.39 0.18 87.56 0.21 87.73 0.29 87.9 0.37 88.02 0.53 88.1 0.77 88.16 0.95 88.14 1.2 88.05 1.54 87.96 1.88 87.83 2.27 87.66 2.7 87.49 3.13 87.29 3.6 87.05 4.1 86.82 4.6 86.58 5.09 86.35 5.58 86.11 6.07 85.89 6.54 85.68 6.99 85.47 7.44 85.3 7.84 85.16 8.18 85.03 8.52 84.95 8.79 84.93 8.99 84.91 9.19 84.97 9.28 85.1 9.27 85.18 9.27 85.28 9.2 85.41 9.08 85.54 8.96 85.67 8.81 85.82 8.62 85.97 8.43 86.13 8.22 86.29 7.99 86.45 7.76 86.6 7.53 86.75 7.29 86.89 7.06 87.02 6.84 87.13 6.63 87.24 6.42 87.32 6.25 87.37 6.11 87.39 6.05 87.43 6.01 87.49 5.99 87.55 5.97 87.6 5.97 87.65 5.99 87.7 6.01 87.74 6.04 87.76 6.09 87.79 6.14 87.79 6.19 87.76 6.25Z" class="MsftOfcThm_Background1_Fill_v2" fill="#FFFFFF"/><path d="M91.2 4.75C91.2 4.88 91.18 4.97 91.13 5.03 91.07 5.15 90.97 5.21 90.83 5.21 90.73 5.21 90.65 5.18 90.57 5.11 90.49 5.05 90.46 4.96 90.46 4.86 90.46 4.8 90.48 4.74 90.51 4.68 90.54 4.62 90.59 4.58 90.65 4.54 90.59 4.43 90.51 4.37 90.43 4.37 90.35 4.37 90.26 4.4 90.16 4.47 90.06 4.54 89.97 4.63 89.87 4.75 89.77 4.87 89.67 4.98 89.58 5.1 89.41 5.32 89.25 5.57 89.09 5.85 88.93 6.13 88.8 6.43 88.68 6.73 88.56 7.03 88.46 7.33 88.39 7.62 88.32 7.91 88.28 8.18 88.28 8.42 88.28 8.66 88.31 8.86 88.38 9.01 88.45 9.17 88.57 9.26 88.74 9.29 88.86 9.31 88.99 9.26 89.14 9.13 89.29 9 89.44 8.83 89.58 8.62 89.73 8.41 89.87 8.19 90.01 7.94 90.15 7.7 90.27 7.47 90.38 7.26 90.21 7.19 90.1 7.07 90.03 6.91 89.97 6.75 89.95 6.58 89.97 6.41 89.99 6.24 90.06 6.09 90.16 5.97 90.26 5.84 90.4 5.78 90.56 5.78 90.62 5.78 90.69 5.78 90.78 5.79 90.87 5.8 90.94 5.84 91.01 5.92 91.07 6 91.11 6.12 91.12 6.29 91.12 6.46 91.08 6.7 90.99 7.02 91.31 7.02 91.57 6.97 91.76 6.89 91.95 6.81 92.1 6.72 92.21 6.63 92.32 6.53 92.39 6.44 92.43 6.35 92.47 6.26 92.49 6.2 92.51 6.18 92.53 6.12 92.57 6.09 92.62 6.08 92.67 6.07 92.72 6.08 92.77 6.1 92.82 6.12 92.85 6.16 92.88 6.21 92.9 6.26 92.9 6.32 92.88 6.38 92.82 6.53 92.72 6.67 92.58 6.8 92.44 6.93 92.29 7.04 92.11 7.12 91.93 7.21 91.73 7.28 91.51 7.32 91.29 7.37 91.07 7.39 90.84 7.38 90.73 7.63 90.59 7.9 90.41 8.21 90.24 8.51 90.04 8.8 89.82 9.06 89.6 9.32 89.35 9.53 89.08 9.7 88.81 9.87 88.53 9.94 88.22 9.92 87.82 9.88 87.51 9.71 87.28 9.42 87.05 9.12 86.93 8.76 86.91 8.34 86.91 8.02 86.93 7.69 87.01 7.34 87.08 6.99 87.19 6.65 87.33 6.31 87.47 5.97 87.65 5.66 87.86 5.36 88.07 5.06 88.3 4.8 88.56 4.57 88.82 4.35 89.1 4.17 89.41 4.05 89.72 3.93 90.04 3.88 90.38 3.89 90.53 3.89 90.66 3.93 90.76 3.99 90.86 4.05 90.94 4.12 91.01 4.21 91.07 4.29 91.12 4.39 91.15 4.49 91.18 4.59 91.21 4.68 91.22 4.77Z" class="MsftOfcThm_Background1_Fill_v2" fill="#FFFFFF"/><path d="M95.52 4.86C95.52 4.8 95.54 4.74 95.57 4.68 95.6 4.62 95.65 4.58 95.71 4.54 95.67 4.44 95.61 4.4 95.52 4.4 95.41 4.4 95.28 4.44 95.15 4.55 95.02 4.66 94.87 4.81 94.71 5.02 94.55 5.22 94.39 5.48 94.22 5.78 94.05 6.08 93.88 6.41 93.72 6.78 93.62 7.01 93.53 7.26 93.46 7.53 93.39 7.8 93.35 8.05 93.35 8.3 93.35 8.54 93.37 8.76 93.42 8.94 93.48 9.12 93.58 9.24 93.72 9.3 93.9 9.37 94.08 9.3 94.28 9.1 94.48 8.9 94.68 8.63 94.88 8.29 95.08 7.95 95.27 7.59 95.46 7.2 95.65 6.81 95.82 6.47 95.98 6.17 95.98 6.15 95.98 6.13 95.99 6.12 96.21 5.61 96.37 5.17 96.49 4.81 96.61 4.45 96.63 4.23 96.57 4.14 96.53 4.09 96.57 4.04 96.68 3.97 96.79 3.91 96.93 3.87 97.1 3.86 97.27 3.85 97.43 3.89 97.6 3.98 97.76 4.07 97.88 4.24 97.95 4.48 97.99 4.62 97.97 4.83 97.89 5.13 97.81 5.43 97.7 5.77 97.55 6.14 97.41 6.52 97.24 6.91 97.06 7.32 96.88 7.73 96.7 8.12 96.53 8.48 96.36 8.84 96.21 9.16 96.09 9.43 95.97 9.7 95.88 9.89 95.85 9.99 96.14 9.8 96.44 9.53 96.75 9.18 97.06 8.83 97.35 8.47 97.63 8.09 97.9 7.71 98.14 7.34 98.35 6.98 98.56 6.62 98.7 6.33 98.78 6.12 98.8 6.05 98.84 6 98.9 5.98 98.96 5.96 99.01 5.96 99.06 5.98 99.11 6 99.15 6.03 99.17 6.08 99.2 6.13 99.2 6.18 99.17 6.24 98.99 6.65 98.76 7.08 98.48 7.53 98.2 7.98 97.9 8.42 97.57 8.83 97.24 9.24 96.9 9.62 96.54 9.95 96.18 10.28 95.83 10.54 95.48 10.71 95.43 10.83 95.37 10.98 95.29 11.17 95.21 11.36 95.13 11.55 95.04 11.74 94.96 11.93 94.88 12.11 94.81 12.28 94.74 12.45 94.69 12.57 94.66 12.65 94.58 12.87 94.45 13.06 94.28 13.22 94.11 13.38 93.91 13.5 93.7 13.58 93.48 13.66 93.26 13.71 93.03 13.72 92.8 13.73 92.58 13.71 92.38 13.65 92.18 13.59 92.01 13.49 91.86 13.35 91.71 13.21 91.62 13.03 91.58 12.82 91.58 12.75 91.58 12.66 91.61 12.56 91.64 12.46 91.71 12.35 91.82 12.24 91.95 12.11 92.1 12 92.28 11.89 92.46 11.79 92.65 11.69 92.84 11.59 93.04 11.49 93.23 11.4 93.42 11.3 93.61 11.2 93.77 11.09 93.91 10.97 93.99 10.75 94.08 10.5 94.19 10.23 94.3 9.96 94.42 9.67 94.54 9.38 94.31 9.6 94.05 9.75 93.78 9.83 93.5 9.91 93.19 9.88 92.85 9.74 92.53 9.61 92.3 9.42 92.16 9.18 92.02 8.93 91.94 8.66 91.91 8.37 91.89 8.08 91.91 7.77 91.98 7.46 92.05 7.14 92.14 6.85 92.24 6.59 92.43 6.1 92.65 5.68 92.88 5.34 93.11 5 93.37 4.71 93.63 4.49 93.89 4.27 94.17 4.11 94.45 4.02 94.73 3.92 95.01 3.88 95.3 3.89 95.4 3.89 95.5 3.92 95.61 3.94 95.72 3.97 95.82 4.01 95.91 4.08 96 4.15 96.08 4.23 96.14 4.34 96.2 4.45 96.24 4.58 96.24 4.74 96.24 4.9 96.2 5.02 96.13 5.09 96.07 5.17 95.98 5.21 95.87 5.21 95.77 5.21 95.69 5.18 95.61 5.11 95.53 5.05 95.5 4.96 95.5 4.86ZM93.76 11.53C93.64 11.63 93.5 11.71 93.35 11.78 93.2 11.85 93.05 11.92 92.89 12 92.74 12.07 92.59 12.15 92.45 12.24 92.31 12.33 92.2 12.43 92.11 12.55 92.05 12.63 92.03 12.72 92.04 12.81 92.05 12.91 92.09 12.99 92.15 13.07 92.21 13.15 92.29 13.2 92.38 13.24 92.47 13.28 92.57 13.28 92.69 13.25 92.8 13.22 92.92 13.14 93.04 13.02 93.16 12.9 93.27 12.71 93.38 12.45 93.43 12.34 93.49 12.21 93.55 12.05 93.62 11.9 93.69 11.72 93.76 11.52Z" class="MsftOfcThm_Background1_Fill_v2" fill="#FFFFFF"/></svg>